G04 #@! TF.GenerationSoftware,KiCad,Pcbnew,5.0.0-fee4fd1~65~ubuntu17.10.1*
G04 #@! TF.CreationDate,2018-12-23T17:35:25+00:00*
G04 #@! TF.ProjectId,Programmer Using CH340G,50726F6772616D6D6572205573696E67,rev?*
G04 #@! TF.SameCoordinates,Original*
G04 #@! TF.FileFunction,Legend,Top*
G04 #@! TF.FilePolarity,Positive*
%FSLAX46Y46*%
G04 Gerber Fmt 4.6, Leading zero omitted, Abs format (unit mm)*
G04 Created by KiCad (PCBNEW 5.0.0-fee4fd1~65~ubuntu17.10.1) date Sun Dec 23 17:35:25 2018*
%MOMM*%
%LPD*%
G01*
G04 APERTURE LIST*
%ADD10C,0.150000*%
%ADD11C,0.250000*%
%ADD12C,0.120000*%
G04 APERTURE END LIST*
D10*
G36*
X134239000Y-42672000D02*
X135636000Y-41402000D01*
X135636000Y-43815000D01*
X134239000Y-42672000D01*
G37*
X134239000Y-42672000D02*
X135636000Y-41402000D01*
X135636000Y-43815000D01*
X134239000Y-42672000D01*
D11*
X125349047Y-40076428D02*
X126110952Y-40076428D01*
X125730000Y-40457380D02*
X125730000Y-39695476D01*
X91346071Y-57269071D02*
X91679404Y-57269071D01*
X91822261Y-57792880D02*
X91346071Y-57792880D01*
X91346071Y-56792880D01*
X91822261Y-56792880D01*
X92203214Y-57745261D02*
X92346071Y-57792880D01*
X92584166Y-57792880D01*
X92679404Y-57745261D01*
X92727023Y-57697642D01*
X92774642Y-57602404D01*
X92774642Y-57507166D01*
X92727023Y-57411928D01*
X92679404Y-57364309D01*
X92584166Y-57316690D01*
X92393690Y-57269071D01*
X92298452Y-57221452D01*
X92250833Y-57173833D01*
X92203214Y-57078595D01*
X92203214Y-56983357D01*
X92250833Y-56888119D01*
X92298452Y-56840500D01*
X92393690Y-56792880D01*
X92631785Y-56792880D01*
X92774642Y-56840500D01*
X93203214Y-57792880D02*
X93203214Y-56792880D01*
X93584166Y-56792880D01*
X93679404Y-56840500D01*
X93727023Y-56888119D01*
X93774642Y-56983357D01*
X93774642Y-57126214D01*
X93727023Y-57221452D01*
X93679404Y-57269071D01*
X93584166Y-57316690D01*
X93203214Y-57316690D01*
X94346071Y-57221452D02*
X94250833Y-57173833D01*
X94203214Y-57126214D01*
X94155595Y-57030976D01*
X94155595Y-56983357D01*
X94203214Y-56888119D01*
X94250833Y-56840500D01*
X94346071Y-56792880D01*
X94536547Y-56792880D01*
X94631785Y-56840500D01*
X94679404Y-56888119D01*
X94727023Y-56983357D01*
X94727023Y-57030976D01*
X94679404Y-57126214D01*
X94631785Y-57173833D01*
X94536547Y-57221452D01*
X94346071Y-57221452D01*
X94250833Y-57269071D01*
X94203214Y-57316690D01*
X94155595Y-57411928D01*
X94155595Y-57602404D01*
X94203214Y-57697642D01*
X94250833Y-57745261D01*
X94346071Y-57792880D01*
X94536547Y-57792880D01*
X94631785Y-57745261D01*
X94679404Y-57697642D01*
X94727023Y-57602404D01*
X94727023Y-57411928D01*
X94679404Y-57316690D01*
X94631785Y-57269071D01*
X94536547Y-57221452D01*
X95107976Y-56888119D02*
X95155595Y-56840500D01*
X95250833Y-56792880D01*
X95488928Y-56792880D01*
X95584166Y-56840500D01*
X95631785Y-56888119D01*
X95679404Y-56983357D01*
X95679404Y-57078595D01*
X95631785Y-57221452D01*
X95060357Y-57792880D01*
X95679404Y-57792880D01*
X96536547Y-56792880D02*
X96346071Y-56792880D01*
X96250833Y-56840500D01*
X96203214Y-56888119D01*
X96107976Y-57030976D01*
X96060357Y-57221452D01*
X96060357Y-57602404D01*
X96107976Y-57697642D01*
X96155595Y-57745261D01*
X96250833Y-57792880D01*
X96441309Y-57792880D01*
X96536547Y-57745261D01*
X96584166Y-57697642D01*
X96631785Y-57602404D01*
X96631785Y-57364309D01*
X96584166Y-57269071D01*
X96536547Y-57221452D01*
X96441309Y-57173833D01*
X96250833Y-57173833D01*
X96155595Y-57221452D01*
X96107976Y-57269071D01*
X96060357Y-57364309D01*
X97488928Y-56792880D02*
X97298452Y-56792880D01*
X97203214Y-56840500D01*
X97155595Y-56888119D01*
X97060357Y-57030976D01*
X97012738Y-57221452D01*
X97012738Y-57602404D01*
X97060357Y-57697642D01*
X97107976Y-57745261D01*
X97203214Y-57792880D01*
X97393690Y-57792880D01*
X97488928Y-57745261D01*
X97536547Y-57697642D01*
X97584166Y-57602404D01*
X97584166Y-57364309D01*
X97536547Y-57269071D01*
X97488928Y-57221452D01*
X97393690Y-57173833D01*
X97203214Y-57173833D01*
X97107976Y-57221452D01*
X97060357Y-57269071D01*
X97012738Y-57364309D01*
X98774642Y-57792880D02*
X98774642Y-56792880D01*
X99155595Y-56792880D01*
X99250833Y-56840500D01*
X99298452Y-56888119D01*
X99346071Y-56983357D01*
X99346071Y-57126214D01*
X99298452Y-57221452D01*
X99250833Y-57269071D01*
X99155595Y-57316690D01*
X98774642Y-57316690D01*
X99774642Y-57792880D02*
X99774642Y-57126214D01*
X99774642Y-57316690D02*
X99822261Y-57221452D01*
X99869880Y-57173833D01*
X99965119Y-57126214D01*
X100060357Y-57126214D01*
X100536547Y-57792880D02*
X100441309Y-57745261D01*
X100393690Y-57697642D01*
X100346071Y-57602404D01*
X100346071Y-57316690D01*
X100393690Y-57221452D01*
X100441309Y-57173833D01*
X100536547Y-57126214D01*
X100679404Y-57126214D01*
X100774642Y-57173833D01*
X100822261Y-57221452D01*
X100869880Y-57316690D01*
X100869880Y-57602404D01*
X100822261Y-57697642D01*
X100774642Y-57745261D01*
X100679404Y-57792880D01*
X100536547Y-57792880D01*
X101727023Y-57126214D02*
X101727023Y-57935738D01*
X101679404Y-58030976D01*
X101631785Y-58078595D01*
X101536547Y-58126214D01*
X101393690Y-58126214D01*
X101298452Y-58078595D01*
X101727023Y-57745261D02*
X101631785Y-57792880D01*
X101441309Y-57792880D01*
X101346071Y-57745261D01*
X101298452Y-57697642D01*
X101250833Y-57602404D01*
X101250833Y-57316690D01*
X101298452Y-57221452D01*
X101346071Y-57173833D01*
X101441309Y-57126214D01*
X101631785Y-57126214D01*
X101727023Y-57173833D01*
X102203214Y-57792880D02*
X102203214Y-57126214D01*
X102203214Y-57316690D02*
X102250833Y-57221452D01*
X102298452Y-57173833D01*
X102393690Y-57126214D01*
X102488928Y-57126214D01*
X103250833Y-57792880D02*
X103250833Y-57269071D01*
X103203214Y-57173833D01*
X103107976Y-57126214D01*
X102917500Y-57126214D01*
X102822261Y-57173833D01*
X103250833Y-57745261D02*
X103155595Y-57792880D01*
X102917500Y-57792880D01*
X102822261Y-57745261D01*
X102774642Y-57650023D01*
X102774642Y-57554785D01*
X102822261Y-57459547D01*
X102917500Y-57411928D01*
X103155595Y-57411928D01*
X103250833Y-57364309D01*
X103727023Y-57792880D02*
X103727023Y-57126214D01*
X103727023Y-57221452D02*
X103774642Y-57173833D01*
X103869880Y-57126214D01*
X104012738Y-57126214D01*
X104107976Y-57173833D01*
X104155595Y-57269071D01*
X104155595Y-57792880D01*
X104155595Y-57269071D02*
X104203214Y-57173833D01*
X104298452Y-57126214D01*
X104441309Y-57126214D01*
X104536547Y-57173833D01*
X104584166Y-57269071D01*
X104584166Y-57792880D01*
X105060357Y-57792880D02*
X105060357Y-57126214D01*
X105060357Y-57221452D02*
X105107976Y-57173833D01*
X105203214Y-57126214D01*
X105346071Y-57126214D01*
X105441309Y-57173833D01*
X105488928Y-57269071D01*
X105488928Y-57792880D01*
X105488928Y-57269071D02*
X105536547Y-57173833D01*
X105631785Y-57126214D01*
X105774642Y-57126214D01*
X105869880Y-57173833D01*
X105917500Y-57269071D01*
X105917500Y-57792880D01*
X106774642Y-57745261D02*
X106679404Y-57792880D01*
X106488928Y-57792880D01*
X106393690Y-57745261D01*
X106346071Y-57650023D01*
X106346071Y-57269071D01*
X106393690Y-57173833D01*
X106488928Y-57126214D01*
X106679404Y-57126214D01*
X106774642Y-57173833D01*
X106822261Y-57269071D01*
X106822261Y-57364309D01*
X106346071Y-57459547D01*
X107250833Y-57792880D02*
X107250833Y-57126214D01*
X107250833Y-57316690D02*
X107298452Y-57221452D01*
X107346071Y-57173833D01*
X107441309Y-57126214D01*
X107536547Y-57126214D01*
X109203214Y-57792880D02*
X108869880Y-57316690D01*
X108631785Y-57792880D02*
X108631785Y-56792880D01*
X109012738Y-56792880D01*
X109107976Y-56840500D01*
X109155595Y-56888119D01*
X109203214Y-56983357D01*
X109203214Y-57126214D01*
X109155595Y-57221452D01*
X109107976Y-57269071D01*
X109012738Y-57316690D01*
X108631785Y-57316690D01*
X110012738Y-57745261D02*
X109917500Y-57792880D01*
X109727023Y-57792880D01*
X109631785Y-57745261D01*
X109584166Y-57650023D01*
X109584166Y-57269071D01*
X109631785Y-57173833D01*
X109727023Y-57126214D01*
X109917500Y-57126214D01*
X110012738Y-57173833D01*
X110060357Y-57269071D01*
X110060357Y-57364309D01*
X109584166Y-57459547D01*
X110393690Y-57126214D02*
X110631785Y-57792880D01*
X110869880Y-57126214D01*
X112441309Y-57126214D02*
X112441309Y-57792880D01*
X112203214Y-56745261D02*
X111965119Y-57459547D01*
X112584166Y-57459547D01*
X124150619Y-58110380D02*
X123817285Y-57634190D01*
X123579190Y-58110380D02*
X123579190Y-57110380D01*
X123960142Y-57110380D01*
X124055380Y-57158000D01*
X124103000Y-57205619D01*
X124150619Y-57300857D01*
X124150619Y-57443714D01*
X124103000Y-57538952D01*
X124055380Y-57586571D01*
X123960142Y-57634190D01*
X123579190Y-57634190D01*
X124579190Y-57586571D02*
X124912523Y-57586571D01*
X125055380Y-58110380D02*
X124579190Y-58110380D01*
X124579190Y-57110380D01*
X125055380Y-57110380D01*
X125436333Y-58062761D02*
X125579190Y-58110380D01*
X125817285Y-58110380D01*
X125912523Y-58062761D01*
X125960142Y-58015142D01*
X126007761Y-57919904D01*
X126007761Y-57824666D01*
X125960142Y-57729428D01*
X125912523Y-57681809D01*
X125817285Y-57634190D01*
X125626809Y-57586571D01*
X125531571Y-57538952D01*
X125483952Y-57491333D01*
X125436333Y-57396095D01*
X125436333Y-57300857D01*
X125483952Y-57205619D01*
X125531571Y-57158000D01*
X125626809Y-57110380D01*
X125864904Y-57110380D01*
X126007761Y-57158000D01*
X126436333Y-57586571D02*
X126769666Y-57586571D01*
X126912523Y-58110380D02*
X126436333Y-58110380D01*
X126436333Y-57110380D01*
X126912523Y-57110380D01*
X127198238Y-57110380D02*
X127769666Y-57110380D01*
X127483952Y-58110380D02*
X127483952Y-57110380D01*
D10*
G04 #@! TO.C,J1*
X84201000Y-52514500D02*
X84201000Y-48831500D01*
X89408000Y-52514500D02*
X84201000Y-52514500D01*
X89408000Y-50482500D02*
X89408000Y-52514500D01*
X89408000Y-45148500D02*
X89408000Y-47053500D01*
X84201000Y-45148500D02*
X89408000Y-45148500D01*
X84201000Y-48831500D02*
X84201000Y-45148500D01*
D12*
G04 #@! TO.C,IC1*
X102724000Y-40540500D02*
X102724000Y-46550500D01*
X95904000Y-42790500D02*
X95904000Y-46550500D01*
X102724000Y-46550500D02*
X101464000Y-46550500D01*
X95904000Y-46550500D02*
X97164000Y-46550500D01*
G04 #@! TO.C,Y1*
X103570500Y-52302000D02*
X97820500Y-52302000D01*
X103570500Y-55902000D02*
X103570500Y-52302000D01*
X97820500Y-55902000D02*
X103570500Y-55902000D01*
D10*
G04 #@! TO.C,J2*
X131572000Y-43942000D02*
X134112000Y-43942000D01*
X131572000Y-56642000D02*
X131572000Y-41402000D01*
X134112000Y-56642000D02*
X131572000Y-56642000D01*
X134112000Y-41402000D02*
X134112000Y-56642000D01*
X131572000Y-41402000D02*
X134112000Y-41402000D01*
D12*
G04 #@! TO.C,J3*
X96369000Y-50038000D02*
X96819000Y-50488000D01*
X96819000Y-50488000D02*
X96819000Y-49588000D01*
X96819000Y-49588000D02*
X96369000Y-50038000D01*
X95519000Y-50838000D02*
X95519000Y-54938000D01*
X95519000Y-54938000D02*
X91669000Y-54938000D01*
X88619000Y-54938000D02*
X79819000Y-54938000D01*
X95519000Y-46738000D02*
X95519000Y-42638000D01*
X95519000Y-42638000D02*
X91719000Y-42638000D01*
X88569000Y-42638000D02*
X79819000Y-42638000D01*
G04 #@! TO.C,C1*
X102902500Y-51463500D02*
X102202500Y-51463500D01*
X102202500Y-50263500D02*
X102902500Y-50263500D01*
G04 #@! TO.C,C2*
X98265500Y-50263500D02*
X98965500Y-50263500D01*
X98965500Y-51463500D02*
X98265500Y-51463500D01*
G04 #@! TO.C,C4*
X93388000Y-40230500D02*
X94088000Y-40230500D01*
X94088000Y-41430500D02*
X93388000Y-41430500D01*
G04 #@! TO.C,C6*
X128870000Y-42080000D02*
X128870000Y-42780000D01*
X127670000Y-42780000D02*
X127670000Y-42080000D01*
G04 #@! TO.C,R1*
X116590000Y-56814000D02*
X115590000Y-56814000D01*
X115590000Y-55454000D02*
X116590000Y-55454000D01*
G04 #@! TO.C,R2*
X115590000Y-53168000D02*
X116590000Y-53168000D01*
X116590000Y-54528000D02*
X115590000Y-54528000D01*
G04 #@! TO.C,R3*
X124214000Y-48977000D02*
X125214000Y-48977000D01*
X125214000Y-50337000D02*
X124214000Y-50337000D01*
G04 #@! TO.C,R4*
X123972000Y-43516000D02*
X124972000Y-43516000D01*
X124972000Y-44876000D02*
X123972000Y-44876000D01*
G04 #@! TO.C,R5*
X119208000Y-45978000D02*
X119208000Y-44978000D01*
X120568000Y-44978000D02*
X120568000Y-45978000D01*
G04 #@! TO.C,R6*
X119208000Y-49268000D02*
X119208000Y-48268000D01*
X120568000Y-48268000D02*
X120568000Y-49268000D01*
G04 #@! TO.C,D2*
X122830000Y-40956000D02*
X125630000Y-40956000D01*
X122830000Y-42356000D02*
X125630000Y-42356000D01*
X122830000Y-40956000D02*
X122830000Y-42356000D01*
G04 #@! TO.C,R7*
X127717000Y-48125000D02*
X127717000Y-47125000D01*
X129077000Y-47125000D02*
X129077000Y-48125000D01*
G04 #@! TO.C,R8*
X120568000Y-41422000D02*
X120568000Y-42422000D01*
X119208000Y-42422000D02*
X119208000Y-41422000D01*
G04 #@! TO.C,C3*
X107297000Y-44815000D02*
X106527000Y-44055000D01*
X107297000Y-44815000D02*
X111107000Y-44815000D01*
X107297000Y-40245000D02*
X106527000Y-41005000D01*
X107297000Y-40245000D02*
X111107000Y-40245000D01*
X106527000Y-41005000D02*
X106527000Y-41415000D01*
X106527000Y-44055000D02*
X106527000Y-43645000D01*
X111107000Y-44815000D02*
X111107000Y-43645000D01*
X111107000Y-40245000D02*
X111107000Y-41415000D01*
G04 #@! TO.C,C5*
X103603500Y-42577500D02*
X103603500Y-41877500D01*
X104803500Y-41877500D02*
X104803500Y-42577500D01*
D10*
G04 #@! TO.C,SW1*
X127508000Y-51562000D02*
X123698000Y-51562000D01*
X127508000Y-56007000D02*
X123698000Y-56007000D01*
X125603000Y-51562000D02*
X125603000Y-52832000D01*
X125603000Y-52832000D02*
X126873000Y-54737000D01*
X125603000Y-54737000D02*
X125603000Y-56007000D01*
X128778000Y-52451000D02*
X128778000Y-55118000D01*
X122428000Y-52451000D02*
X122428000Y-55118000D01*
D12*
G04 #@! TO.C,T1*
X123954000Y-45283000D02*
X123954000Y-46213000D01*
X123954000Y-48443000D02*
X123954000Y-47513000D01*
X123954000Y-48443000D02*
X126114000Y-48443000D01*
X123954000Y-45283000D02*
X125414000Y-45283000D01*
G04 #@! TO.C,T2*
X117277000Y-41531000D02*
X117277000Y-42991000D01*
X114117000Y-41531000D02*
X114117000Y-43691000D01*
X114117000Y-41531000D02*
X115047000Y-41531000D01*
X117277000Y-41531000D02*
X116347000Y-41531000D01*
G04 #@! TO.C,T3*
X117785000Y-47500000D02*
X116855000Y-47500000D01*
X114625000Y-47500000D02*
X115555000Y-47500000D01*
X114625000Y-47500000D02*
X114625000Y-49660000D01*
X117785000Y-47500000D02*
X117785000Y-48960000D01*
D10*
G04 #@! TO.C,U1*
X106680000Y-46482000D02*
X106680000Y-56134000D01*
X106680000Y-56134000D02*
X111887000Y-56134000D01*
X111887000Y-56134000D02*
X111887000Y-46482000D01*
X111887000Y-46482000D02*
X106680000Y-46482000D01*
X108585000Y-46482000D02*
X108585000Y-47117000D01*
X108585000Y-47117000D02*
X109982000Y-47117000D01*
X109982000Y-47117000D02*
X109982000Y-46482000D01*
G04 #@! TO.C,J1*
X90281166Y-51395380D02*
X90281166Y-52109666D01*
X90233547Y-52252523D01*
X90138309Y-52347761D01*
X89995452Y-52395380D01*
X89900214Y-52395380D01*
X91281166Y-52395380D02*
X90709738Y-52395380D01*
X90995452Y-52395380D02*
X90995452Y-51395380D01*
X90900214Y-51538238D01*
X90804976Y-51633476D01*
X90709738Y-51681095D01*
G04 #@! TO.C,IC1*
X103957380Y-47140690D02*
X102957380Y-47140690D01*
X103862142Y-46093071D02*
X103909761Y-46140690D01*
X103957380Y-46283547D01*
X103957380Y-46378785D01*
X103909761Y-46521642D01*
X103814523Y-46616880D01*
X103719285Y-46664500D01*
X103528809Y-46712119D01*
X103385952Y-46712119D01*
X103195476Y-46664500D01*
X103100238Y-46616880D01*
X103005000Y-46521642D01*
X102957380Y-46378785D01*
X102957380Y-46283547D01*
X103005000Y-46140690D01*
X103052619Y-46093071D01*
X103957380Y-45140690D02*
X103957380Y-45712119D01*
X103957380Y-45426404D02*
X102957380Y-45426404D01*
X103100238Y-45521642D01*
X103195476Y-45616880D01*
X103243095Y-45712119D01*
G04 #@! TO.C,Y1*
X95980309Y-55475190D02*
X95980309Y-55951380D01*
X95646976Y-54951380D02*
X95980309Y-55475190D01*
X96313642Y-54951380D01*
X97170785Y-55951380D02*
X96599357Y-55951380D01*
X96885071Y-55951380D02*
X96885071Y-54951380D01*
X96789833Y-55094238D01*
X96694595Y-55189476D01*
X96599357Y-55237095D01*
G04 #@! TO.C,J2*
X131238666Y-39584380D02*
X131238666Y-40298666D01*
X131191047Y-40441523D01*
X131095809Y-40536761D01*
X130952952Y-40584380D01*
X130857714Y-40584380D01*
X131667238Y-39679619D02*
X131714857Y-39632000D01*
X131810095Y-39584380D01*
X132048190Y-39584380D01*
X132143428Y-39632000D01*
X132191047Y-39679619D01*
X132238666Y-39774857D01*
X132238666Y-39870095D01*
X132191047Y-40012952D01*
X131619619Y-40584380D01*
X132238666Y-40584380D01*
X130587714Y-43124380D02*
X130016285Y-43124380D01*
X130302000Y-43124380D02*
X130302000Y-42124380D01*
X130206761Y-42267238D01*
X130111523Y-42362476D01*
X130016285Y-42410095D01*
G04 #@! TO.C,J3*
X86217166Y-41171880D02*
X86217166Y-41886166D01*
X86169547Y-42029023D01*
X86074309Y-42124261D01*
X85931452Y-42171880D01*
X85836214Y-42171880D01*
X86598119Y-41171880D02*
X87217166Y-41171880D01*
X86883833Y-41552833D01*
X87026690Y-41552833D01*
X87121928Y-41600452D01*
X87169547Y-41648071D01*
X87217166Y-41743309D01*
X87217166Y-41981404D01*
X87169547Y-42076642D01*
X87121928Y-42124261D01*
X87026690Y-42171880D01*
X86740976Y-42171880D01*
X86645738Y-42124261D01*
X86598119Y-42076642D01*
G04 #@! TO.C,C1*
X103211333Y-49696642D02*
X103163714Y-49744261D01*
X103020857Y-49791880D01*
X102925619Y-49791880D01*
X102782761Y-49744261D01*
X102687523Y-49649023D01*
X102639904Y-49553785D01*
X102592285Y-49363309D01*
X102592285Y-49220452D01*
X102639904Y-49029976D01*
X102687523Y-48934738D01*
X102782761Y-48839500D01*
X102925619Y-48791880D01*
X103020857Y-48791880D01*
X103163714Y-48839500D01*
X103211333Y-48887119D01*
X104163714Y-49791880D02*
X103592285Y-49791880D01*
X103878000Y-49791880D02*
X103878000Y-48791880D01*
X103782761Y-48934738D01*
X103687523Y-49029976D01*
X103592285Y-49077595D01*
G04 #@! TO.C,C2*
X96226333Y-52681142D02*
X96178714Y-52728761D01*
X96035857Y-52776380D01*
X95940619Y-52776380D01*
X95797761Y-52728761D01*
X95702523Y-52633523D01*
X95654904Y-52538285D01*
X95607285Y-52347809D01*
X95607285Y-52204952D01*
X95654904Y-52014476D01*
X95702523Y-51919238D01*
X95797761Y-51824000D01*
X95940619Y-51776380D01*
X96035857Y-51776380D01*
X96178714Y-51824000D01*
X96226333Y-51871619D01*
X96607285Y-51871619D02*
X96654904Y-51824000D01*
X96750142Y-51776380D01*
X96988238Y-51776380D01*
X97083476Y-51824000D01*
X97131095Y-51871619D01*
X97178714Y-51966857D01*
X97178714Y-52062095D01*
X97131095Y-52204952D01*
X96559666Y-52776380D01*
X97178714Y-52776380D01*
G04 #@! TO.C,C4*
X90955833Y-40552642D02*
X90908214Y-40600261D01*
X90765357Y-40647880D01*
X90670119Y-40647880D01*
X90527261Y-40600261D01*
X90432023Y-40505023D01*
X90384404Y-40409785D01*
X90336785Y-40219309D01*
X90336785Y-40076452D01*
X90384404Y-39885976D01*
X90432023Y-39790738D01*
X90527261Y-39695500D01*
X90670119Y-39647880D01*
X90765357Y-39647880D01*
X90908214Y-39695500D01*
X90955833Y-39743119D01*
X91812976Y-39981214D02*
X91812976Y-40647880D01*
X91574880Y-39600261D02*
X91336785Y-40314547D01*
X91955833Y-40314547D01*
G04 #@! TO.C,C6*
X127595333Y-40489142D02*
X127547714Y-40536761D01*
X127404857Y-40584380D01*
X127309619Y-40584380D01*
X127166761Y-40536761D01*
X127071523Y-40441523D01*
X127023904Y-40346285D01*
X126976285Y-40155809D01*
X126976285Y-40012952D01*
X127023904Y-39822476D01*
X127071523Y-39727238D01*
X127166761Y-39632000D01*
X127309619Y-39584380D01*
X127404857Y-39584380D01*
X127547714Y-39632000D01*
X127595333Y-39679619D01*
X128452476Y-39584380D02*
X128262000Y-39584380D01*
X128166761Y-39632000D01*
X128119142Y-39679619D01*
X128023904Y-39822476D01*
X127976285Y-40012952D01*
X127976285Y-40393904D01*
X128023904Y-40489142D01*
X128071523Y-40536761D01*
X128166761Y-40584380D01*
X128357238Y-40584380D01*
X128452476Y-40536761D01*
X128500095Y-40489142D01*
X128547714Y-40393904D01*
X128547714Y-40155809D01*
X128500095Y-40060571D01*
X128452476Y-40012952D01*
X128357238Y-39965333D01*
X128166761Y-39965333D01*
X128071523Y-40012952D01*
X128023904Y-40060571D01*
X127976285Y-40155809D01*
G04 #@! TO.C,R1*
X118451333Y-56205380D02*
X118118000Y-55729190D01*
X117879904Y-56205380D02*
X117879904Y-55205380D01*
X118260857Y-55205380D01*
X118356095Y-55253000D01*
X118403714Y-55300619D01*
X118451333Y-55395857D01*
X118451333Y-55538714D01*
X118403714Y-55633952D01*
X118356095Y-55681571D01*
X118260857Y-55729190D01*
X117879904Y-55729190D01*
X119403714Y-56205380D02*
X118832285Y-56205380D01*
X119118000Y-56205380D02*
X119118000Y-55205380D01*
X119022761Y-55348238D01*
X118927523Y-55443476D01*
X118832285Y-55491095D01*
G04 #@! TO.C,R2*
X115911333Y-52776380D02*
X115578000Y-52300190D01*
X115339904Y-52776380D02*
X115339904Y-51776380D01*
X115720857Y-51776380D01*
X115816095Y-51824000D01*
X115863714Y-51871619D01*
X115911333Y-51966857D01*
X115911333Y-52109714D01*
X115863714Y-52204952D01*
X115816095Y-52252571D01*
X115720857Y-52300190D01*
X115339904Y-52300190D01*
X116292285Y-51871619D02*
X116339904Y-51824000D01*
X116435142Y-51776380D01*
X116673238Y-51776380D01*
X116768476Y-51824000D01*
X116816095Y-51871619D01*
X116863714Y-51966857D01*
X116863714Y-52062095D01*
X116816095Y-52204952D01*
X116244666Y-52776380D01*
X116863714Y-52776380D01*
G04 #@! TO.C,R3*
X122273333Y-49982380D02*
X121940000Y-49506190D01*
X121701904Y-49982380D02*
X121701904Y-48982380D01*
X122082857Y-48982380D01*
X122178095Y-49030000D01*
X122225714Y-49077619D01*
X122273333Y-49172857D01*
X122273333Y-49315714D01*
X122225714Y-49410952D01*
X122178095Y-49458571D01*
X122082857Y-49506190D01*
X121701904Y-49506190D01*
X122606666Y-48982380D02*
X123225714Y-48982380D01*
X122892380Y-49363333D01*
X123035238Y-49363333D01*
X123130476Y-49410952D01*
X123178095Y-49458571D01*
X123225714Y-49553809D01*
X123225714Y-49791904D01*
X123178095Y-49887142D01*
X123130476Y-49934761D01*
X123035238Y-49982380D01*
X122749523Y-49982380D01*
X122654285Y-49934761D01*
X122606666Y-49887142D01*
G04 #@! TO.C,R4*
X122007333Y-44013380D02*
X121674000Y-43537190D01*
X121435904Y-44013380D02*
X121435904Y-43013380D01*
X121816857Y-43013380D01*
X121912095Y-43061000D01*
X121959714Y-43108619D01*
X122007333Y-43203857D01*
X122007333Y-43346714D01*
X121959714Y-43441952D01*
X121912095Y-43489571D01*
X121816857Y-43537190D01*
X121435904Y-43537190D01*
X122864476Y-43346714D02*
X122864476Y-44013380D01*
X122626380Y-42965761D02*
X122388285Y-43680047D01*
X123007333Y-43680047D01*
G04 #@! TO.C,R5*
X117816333Y-45664380D02*
X117483000Y-45188190D01*
X117244904Y-45664380D02*
X117244904Y-44664380D01*
X117625857Y-44664380D01*
X117721095Y-44712000D01*
X117768714Y-44759619D01*
X117816333Y-44854857D01*
X117816333Y-44997714D01*
X117768714Y-45092952D01*
X117721095Y-45140571D01*
X117625857Y-45188190D01*
X117244904Y-45188190D01*
X118721095Y-44664380D02*
X118244904Y-44664380D01*
X118197285Y-45140571D01*
X118244904Y-45092952D01*
X118340142Y-45045333D01*
X118578238Y-45045333D01*
X118673476Y-45092952D01*
X118721095Y-45140571D01*
X118768714Y-45235809D01*
X118768714Y-45473904D01*
X118721095Y-45569142D01*
X118673476Y-45616761D01*
X118578238Y-45664380D01*
X118340142Y-45664380D01*
X118244904Y-45616761D01*
X118197285Y-45569142D01*
G04 #@! TO.C,R6*
X121372333Y-47950380D02*
X121039000Y-47474190D01*
X120800904Y-47950380D02*
X120800904Y-46950380D01*
X121181857Y-46950380D01*
X121277095Y-46998000D01*
X121324714Y-47045619D01*
X121372333Y-47140857D01*
X121372333Y-47283714D01*
X121324714Y-47378952D01*
X121277095Y-47426571D01*
X121181857Y-47474190D01*
X120800904Y-47474190D01*
X122229476Y-46950380D02*
X122039000Y-46950380D01*
X121943761Y-46998000D01*
X121896142Y-47045619D01*
X121800904Y-47188476D01*
X121753285Y-47378952D01*
X121753285Y-47759904D01*
X121800904Y-47855142D01*
X121848523Y-47902761D01*
X121943761Y-47950380D01*
X122134238Y-47950380D01*
X122229476Y-47902761D01*
X122277095Y-47855142D01*
X122324714Y-47759904D01*
X122324714Y-47521809D01*
X122277095Y-47426571D01*
X122229476Y-47378952D01*
X122134238Y-47331333D01*
X121943761Y-47331333D01*
X121848523Y-47378952D01*
X121800904Y-47426571D01*
X121753285Y-47521809D01*
G04 #@! TO.C,D2*
X121943904Y-40203380D02*
X121943904Y-39203380D01*
X122182000Y-39203380D01*
X122324857Y-39251000D01*
X122420095Y-39346238D01*
X122467714Y-39441476D01*
X122515333Y-39631952D01*
X122515333Y-39774809D01*
X122467714Y-39965285D01*
X122420095Y-40060523D01*
X122324857Y-40155761D01*
X122182000Y-40203380D01*
X121943904Y-40203380D01*
X122896285Y-39298619D02*
X122943904Y-39251000D01*
X123039142Y-39203380D01*
X123277238Y-39203380D01*
X123372476Y-39251000D01*
X123420095Y-39298619D01*
X123467714Y-39393857D01*
X123467714Y-39489095D01*
X123420095Y-39631952D01*
X122848666Y-40203380D01*
X123467714Y-40203380D01*
G04 #@! TO.C,R7*
X128357333Y-46045380D02*
X128024000Y-45569190D01*
X127785904Y-46045380D02*
X127785904Y-45045380D01*
X128166857Y-45045380D01*
X128262095Y-45093000D01*
X128309714Y-45140619D01*
X128357333Y-45235857D01*
X128357333Y-45378714D01*
X128309714Y-45473952D01*
X128262095Y-45521571D01*
X128166857Y-45569190D01*
X127785904Y-45569190D01*
X128690666Y-45045380D02*
X129357333Y-45045380D01*
X128928761Y-46045380D01*
G04 #@! TO.C,R8*
X118070333Y-40965380D02*
X117737000Y-40489190D01*
X117498904Y-40965380D02*
X117498904Y-39965380D01*
X117879857Y-39965380D01*
X117975095Y-40013000D01*
X118022714Y-40060619D01*
X118070333Y-40155857D01*
X118070333Y-40298714D01*
X118022714Y-40393952D01*
X117975095Y-40441571D01*
X117879857Y-40489190D01*
X117498904Y-40489190D01*
X118641761Y-40393952D02*
X118546523Y-40346333D01*
X118498904Y-40298714D01*
X118451285Y-40203476D01*
X118451285Y-40155857D01*
X118498904Y-40060619D01*
X118546523Y-40013000D01*
X118641761Y-39965380D01*
X118832238Y-39965380D01*
X118927476Y-40013000D01*
X118975095Y-40060619D01*
X119022714Y-40155857D01*
X119022714Y-40203476D01*
X118975095Y-40298714D01*
X118927476Y-40346333D01*
X118832238Y-40393952D01*
X118641761Y-40393952D01*
X118546523Y-40441571D01*
X118498904Y-40489190D01*
X118451285Y-40584428D01*
X118451285Y-40774904D01*
X118498904Y-40870142D01*
X118546523Y-40917761D01*
X118641761Y-40965380D01*
X118832238Y-40965380D01*
X118927476Y-40917761D01*
X118975095Y-40870142D01*
X119022714Y-40774904D01*
X119022714Y-40584428D01*
X118975095Y-40489190D01*
X118927476Y-40441571D01*
X118832238Y-40393952D01*
G04 #@! TO.C,C3*
X112228333Y-40616142D02*
X112180714Y-40663761D01*
X112037857Y-40711380D01*
X111942619Y-40711380D01*
X111799761Y-40663761D01*
X111704523Y-40568523D01*
X111656904Y-40473285D01*
X111609285Y-40282809D01*
X111609285Y-40139952D01*
X111656904Y-39949476D01*
X111704523Y-39854238D01*
X111799761Y-39759000D01*
X111942619Y-39711380D01*
X112037857Y-39711380D01*
X112180714Y-39759000D01*
X112228333Y-39806619D01*
X112561666Y-39711380D02*
X113180714Y-39711380D01*
X112847380Y-40092333D01*
X112990238Y-40092333D01*
X113085476Y-40139952D01*
X113133095Y-40187571D01*
X113180714Y-40282809D01*
X113180714Y-40520904D01*
X113133095Y-40616142D01*
X113085476Y-40663761D01*
X112990238Y-40711380D01*
X112704523Y-40711380D01*
X112609285Y-40663761D01*
X112561666Y-40616142D01*
X105656047Y-44606428D02*
X106417952Y-44606428D01*
X106037000Y-44987380D02*
X106037000Y-44225476D01*
G04 #@! TO.C,C5*
X103909833Y-40298642D02*
X103862214Y-40346261D01*
X103719357Y-40393880D01*
X103624119Y-40393880D01*
X103481261Y-40346261D01*
X103386023Y-40251023D01*
X103338404Y-40155785D01*
X103290785Y-39965309D01*
X103290785Y-39822452D01*
X103338404Y-39631976D01*
X103386023Y-39536738D01*
X103481261Y-39441500D01*
X103624119Y-39393880D01*
X103719357Y-39393880D01*
X103862214Y-39441500D01*
X103909833Y-39489119D01*
X104814595Y-39393880D02*
X104338404Y-39393880D01*
X104290785Y-39870071D01*
X104338404Y-39822452D01*
X104433642Y-39774833D01*
X104671738Y-39774833D01*
X104766976Y-39822452D01*
X104814595Y-39870071D01*
X104862214Y-39965309D01*
X104862214Y-40203404D01*
X104814595Y-40298642D01*
X104766976Y-40346261D01*
X104671738Y-40393880D01*
X104433642Y-40393880D01*
X104338404Y-40346261D01*
X104290785Y-40298642D01*
G04 #@! TO.C,SW1*
X119443666Y-53871761D02*
X119586523Y-53919380D01*
X119824619Y-53919380D01*
X119919857Y-53871761D01*
X119967476Y-53824142D01*
X120015095Y-53728904D01*
X120015095Y-53633666D01*
X119967476Y-53538428D01*
X119919857Y-53490809D01*
X119824619Y-53443190D01*
X119634142Y-53395571D01*
X119538904Y-53347952D01*
X119491285Y-53300333D01*
X119443666Y-53205095D01*
X119443666Y-53109857D01*
X119491285Y-53014619D01*
X119538904Y-52967000D01*
X119634142Y-52919380D01*
X119872238Y-52919380D01*
X120015095Y-52967000D01*
X120348428Y-52919380D02*
X120586523Y-53919380D01*
X120777000Y-53205095D01*
X120967476Y-53919380D01*
X121205571Y-52919380D01*
X122110333Y-53919380D02*
X121538904Y-53919380D01*
X121824619Y-53919380D02*
X121824619Y-52919380D01*
X121729380Y-53062238D01*
X121634142Y-53157476D01*
X121538904Y-53205095D01*
G04 #@! TO.C,T1*
X121285095Y-44918380D02*
X121856523Y-44918380D01*
X121570809Y-45918380D02*
X121570809Y-44918380D01*
X122713666Y-45918380D02*
X122142238Y-45918380D01*
X122427952Y-45918380D02*
X122427952Y-44918380D01*
X122332714Y-45061238D01*
X122237476Y-45156476D01*
X122142238Y-45204095D01*
G04 #@! TO.C,T2*
X112141095Y-41743380D02*
X112712523Y-41743380D01*
X112426809Y-42743380D02*
X112426809Y-41743380D01*
X112998238Y-41838619D02*
X113045857Y-41791000D01*
X113141095Y-41743380D01*
X113379190Y-41743380D01*
X113474428Y-41791000D01*
X113522047Y-41838619D01*
X113569666Y-41933857D01*
X113569666Y-42029095D01*
X113522047Y-42171952D01*
X112950619Y-42743380D01*
X113569666Y-42743380D01*
G04 #@! TO.C,T3*
X117221095Y-50379380D02*
X117792523Y-50379380D01*
X117506809Y-51379380D02*
X117506809Y-50379380D01*
X118030619Y-50379380D02*
X118649666Y-50379380D01*
X118316333Y-50760333D01*
X118459190Y-50760333D01*
X118554428Y-50807952D01*
X118602047Y-50855571D01*
X118649666Y-50950809D01*
X118649666Y-51188904D01*
X118602047Y-51284142D01*
X118554428Y-51331761D01*
X118459190Y-51379380D01*
X118173476Y-51379380D01*
X118078238Y-51331761D01*
X118030619Y-51284142D01*
G04 #@! TO.C,U1*
X112268095Y-45172380D02*
X112268095Y-45981904D01*
X112315714Y-46077142D01*
X112363333Y-46124761D01*
X112458571Y-46172380D01*
X112649047Y-46172380D01*
X112744285Y-46124761D01*
X112791904Y-46077142D01*
X112839523Y-45981904D01*
X112839523Y-45172380D01*
X113839523Y-46172380D02*
X113268095Y-46172380D01*
X113553809Y-46172380D02*
X113553809Y-45172380D01*
X113458571Y-45315238D01*
X113363333Y-45410476D01*
X113268095Y-45458095D01*
G04 #@! TD*
M02*
