G04 #@! TF.GenerationSoftware,KiCad,Pcbnew,5.0.0-fee4fd1~65~ubuntu17.10.1*
G04 #@! TF.CreationDate,2018-12-23T17:35:25+00:00*
G04 #@! TF.ProjectId,Programmer Using CH340G,50726F6772616D6D6572205573696E67,rev?*
G04 #@! TF.SameCoordinates,Original*
G04 #@! TF.FileFunction,Copper,L2,Bot,Signal*
G04 #@! TF.FilePolarity,Positive*
%FSLAX46Y46*%
G04 Gerber Fmt 4.6, Leading zero omitted, Abs format (unit mm)*
G04 Created by KiCad (PCBNEW 5.0.0-fee4fd1~65~ubuntu17.10.1) date Sun Dec 23 17:35:25 2018*
%MOMM*%
%LPD*%
G01*
G04 APERTURE LIST*
G04 #@! TA.AperFunction,ComponentPad*
%ADD10C,0.700000*%
G04 #@! TD*
G04 #@! TA.AperFunction,ComponentPad*
%ADD11C,1.700000*%
G04 #@! TD*
G04 #@! TA.AperFunction,ComponentPad*
%ADD12R,1.700000X1.700000*%
G04 #@! TD*
G04 #@! TA.AperFunction,ComponentPad*
%ADD13C,2.700000*%
G04 #@! TD*
G04 #@! TA.AperFunction,ComponentPad*
%ADD14C,1.520000*%
G04 #@! TD*
G04 #@! TA.AperFunction,ComponentPad*
%ADD15C,1.524000*%
G04 #@! TD*
G04 #@! TA.AperFunction,ViaPad*
%ADD16C,0.800000*%
G04 #@! TD*
G04 #@! TA.AperFunction,Conductor*
%ADD17C,0.500000*%
G04 #@! TD*
G04 #@! TA.AperFunction,Conductor*
%ADD18C,0.250000*%
G04 #@! TD*
G04 #@! TA.AperFunction,Conductor*
%ADD19C,0.254000*%
G04 #@! TD*
G04 APERTURE END LIST*
D10*
G04 #@! TO.P,J1,*
G04 #@! TO.N,*
X88519000Y-50863500D03*
X88519000Y-46799500D03*
G04 #@! TD*
D11*
G04 #@! TO.P,J2,6*
G04 #@! TO.N,/GPIO0*
X132842000Y-55372000D03*
G04 #@! TO.P,J2,5*
G04 #@! TO.N,RX*
X132842000Y-52832000D03*
G04 #@! TO.P,J2,4*
G04 #@! TO.N,TX*
X132842000Y-50292000D03*
G04 #@! TO.P,J2,3*
G04 #@! TO.N,GND*
X132842000Y-47752000D03*
G04 #@! TO.P,J2,2*
G04 #@! TO.N,+3V3*
X132842000Y-45212000D03*
D12*
G04 #@! TO.P,J2,1*
G04 #@! TO.N,/RST*
X132842000Y-42672000D03*
G04 #@! TD*
D13*
G04 #@! TO.P,J3,5*
G04 #@! TO.N,GND*
X90169000Y-54768000D03*
X90169000Y-42768000D03*
D14*
G04 #@! TO.P,J3,3*
G04 #@! TO.N,Net-(J1-Pad3)*
X92869000Y-47498000D03*
G04 #@! TO.P,J3,4*
G04 #@! TO.N,GND*
X92869000Y-50038000D03*
G04 #@! TO.P,J3,1*
G04 #@! TO.N,+5V*
X94869000Y-50038000D03*
G04 #@! TO.P,J3,2*
G04 #@! TO.N,Net-(J1-Pad2)*
X94869000Y-47498000D03*
G04 #@! TD*
D15*
G04 #@! TO.P,SW1,1*
G04 #@! TO.N,/RST*
X128778000Y-51562000D03*
G04 #@! TO.P,SW1,2*
G04 #@! TO.N,GND*
X128778000Y-56007000D03*
G04 #@! TO.P,SW1,3*
G04 #@! TO.N,/RST*
X122428000Y-51562000D03*
G04 #@! TO.P,SW1,4*
G04 #@! TO.N,GND*
X122428000Y-56007000D03*
G04 #@! TD*
D16*
G04 #@! TO.N,GND*
X104648000Y-46863000D03*
X100852000Y-40054000D03*
X112776000Y-42545000D03*
X128651000Y-44958000D03*
X104267000Y-50863500D03*
X126619000Y-46228000D03*
X119888000Y-57150000D03*
X118110000Y-57150000D03*
X109220000Y-57150000D03*
X96520000Y-57150000D03*
X92710000Y-57150000D03*
X88900000Y-57150000D03*
X96520000Y-44450000D03*
X101600000Y-45720000D03*
X110490000Y-48260000D03*
X113030000Y-44450000D03*
X125730000Y-57150000D03*
X132080000Y-40640000D03*
X130810000Y-48260000D03*
X96647000Y-50927000D03*
X89789000Y-50927000D03*
X86360000Y-43370500D03*
X86360000Y-54356000D03*
X92710000Y-53340000D03*
X95250000Y-53340000D03*
X95250000Y-55880000D03*
X92710000Y-55880000D03*
X97790000Y-44450000D03*
X87630000Y-40640000D03*
X102870000Y-48260000D03*
X110490000Y-54610000D03*
X129540000Y-49530000D03*
G04 #@! TO.N,+3V3*
X107569000Y-50165000D03*
X107696000Y-47307500D03*
G04 #@! TO.N,+5V*
X91249500Y-46418500D03*
G04 #@! TO.N,/RST*
X121539000Y-44069000D03*
X128270000Y-40767000D03*
X127381000Y-48387000D03*
G04 #@! TO.N,Net-(J1-Pad3)*
X107315000Y-51879500D03*
G04 #@! TO.N,Net-(J1-Pad2)*
X107315000Y-53213000D03*
G04 #@! TO.N,/GPIO0*
X124587000Y-54991000D03*
X121666000Y-47625000D03*
X119888000Y-43434000D03*
X120375001Y-52322472D03*
G04 #@! TO.N,TX*
X130429000Y-53721000D03*
X130429000Y-52197000D03*
G04 #@! TO.N,Net-(D2-Pad1)*
X122555000Y-41656000D03*
X123063000Y-45466000D03*
G04 #@! TO.N,Net-(R5-Pad2)*
X118618000Y-48641000D03*
X118618000Y-46228000D03*
G04 #@! TO.N,Net-(R6-Pad2)*
X113919000Y-50292000D03*
X117602000Y-43434000D03*
G04 #@! TD*
D17*
G04 #@! TO.N,+3V3*
X107569000Y-50165000D02*
X107569000Y-47434500D01*
X107569000Y-47434500D02*
X107696000Y-47307500D01*
G04 #@! TO.N,+5V*
X94869000Y-51112802D02*
X94292802Y-51689000D01*
X94869000Y-50038000D02*
X94869000Y-51112802D01*
X94292802Y-51689000D02*
X92138500Y-51689000D01*
X92138500Y-51689000D02*
X91249500Y-50800000D01*
X91249500Y-50800000D02*
X91249500Y-46418500D01*
D18*
G04 #@! TO.N,/RST*
X121920000Y-43688000D02*
X121539000Y-44069000D01*
X127889000Y-43688000D02*
X121920000Y-43688000D01*
X132842000Y-42672000D02*
X131292000Y-42672000D01*
X131292000Y-42672000D02*
X130276000Y-43688000D01*
X130276000Y-43688000D02*
X127889000Y-43688000D01*
X128651000Y-43688000D02*
X128524000Y-43688000D01*
X128270000Y-43307000D02*
X128651000Y-43688000D01*
X128524000Y-43688000D02*
X128270000Y-43688000D01*
X128270000Y-43307000D02*
X128270000Y-43434000D01*
X128270000Y-43434000D02*
X128524000Y-43688000D01*
X128270000Y-43688000D02*
X128270000Y-43307000D01*
X128270000Y-43688000D02*
X127889000Y-43688000D01*
X128270000Y-43307000D02*
X128270000Y-40767000D01*
X128270000Y-43307000D02*
X127889000Y-43688000D01*
X130276000Y-43688000D02*
X130276000Y-44730000D01*
X130276000Y-44730000D02*
X128905000Y-46101000D01*
X128905000Y-46101000D02*
X128905000Y-46990000D01*
X128905000Y-46990000D02*
X127508000Y-48387000D01*
X127508000Y-48387000D02*
X127381000Y-48387000D01*
G04 #@! TO.N,Net-(J1-Pad3)*
X92869000Y-47498000D02*
X94075500Y-46291500D01*
X94075500Y-46291500D02*
X96012000Y-46291500D01*
X96012000Y-46291500D02*
X101600000Y-51879500D01*
X101600000Y-51879500D02*
X107315000Y-51879500D01*
G04 #@! TO.N,Net-(J1-Pad2)*
X95943802Y-47498000D02*
X101658802Y-53213000D01*
X94869000Y-47498000D02*
X95943802Y-47498000D01*
X101658802Y-53213000D02*
X107315000Y-53213000D01*
G04 #@! TO.N,/GPIO0*
X121266001Y-47225001D02*
X121266001Y-45955001D01*
X121666000Y-47625000D02*
X121266001Y-47225001D01*
X121266001Y-45955001D02*
X119888000Y-44577000D01*
X119888000Y-44577000D02*
X119888000Y-43434000D01*
X124587000Y-54991000D02*
X123043529Y-54991000D01*
X123043529Y-54991000D02*
X120775000Y-52722471D01*
X120775000Y-52722471D02*
X120375001Y-52322472D01*
G04 #@! TO.N,TX*
X130429000Y-53721000D02*
X130429000Y-53155315D01*
X130429000Y-53155315D02*
X130429000Y-52197000D01*
G04 #@! TO.N,Net-(D2-Pad1)*
X121989315Y-41656000D02*
X120777000Y-42868315D01*
X122555000Y-41656000D02*
X121989315Y-41656000D01*
X120777000Y-42868315D02*
X120777000Y-44704000D01*
X120777000Y-44704000D02*
X121412000Y-45339000D01*
X121412000Y-45339000D02*
X122682000Y-45339000D01*
X122682000Y-45339000D02*
X122936000Y-45339000D01*
X122936000Y-45339000D02*
X123063000Y-45466000D01*
G04 #@! TO.N,Net-(R5-Pad2)*
X118618000Y-48641000D02*
X118618000Y-46228000D01*
G04 #@! TO.N,Net-(R6-Pad2)*
X113919000Y-49726315D02*
X114554000Y-49091315D01*
X113919000Y-50292000D02*
X113919000Y-49726315D01*
X114554000Y-49091315D02*
X114554000Y-46482000D01*
X114554000Y-46482000D02*
X117602000Y-43434000D01*
G04 #@! TD*
D19*
G04 #@! TO.N,GND*
G36*
X135434001Y-40680093D02*
X135434000Y-56601909D01*
X133817910Y-58218000D01*
X87162091Y-58218000D01*
X85931304Y-56987213D01*
X121627392Y-56987213D01*
X121696857Y-57229397D01*
X122220302Y-57416144D01*
X122775368Y-57388362D01*
X123159143Y-57229397D01*
X123228608Y-56987213D01*
X127977392Y-56987213D01*
X128046857Y-57229397D01*
X128570302Y-57416144D01*
X129125368Y-57388362D01*
X129509143Y-57229397D01*
X129578608Y-56987213D01*
X128778000Y-56186605D01*
X127977392Y-56987213D01*
X123228608Y-56987213D01*
X122428000Y-56186605D01*
X121627392Y-56987213D01*
X85931304Y-56987213D01*
X85546000Y-56601910D01*
X85546000Y-56173593D01*
X88943012Y-56173593D01*
X89084478Y-56476782D01*
X89820955Y-56761737D01*
X90610418Y-56743164D01*
X91253522Y-56476782D01*
X91394988Y-56173593D01*
X90169000Y-54947605D01*
X88943012Y-56173593D01*
X85546000Y-56173593D01*
X85546000Y-54419955D01*
X88175263Y-54419955D01*
X88193836Y-55209418D01*
X88460218Y-55852522D01*
X88763407Y-55993988D01*
X89989395Y-54768000D01*
X90348605Y-54768000D01*
X91574593Y-55993988D01*
X91877782Y-55852522D01*
X91898373Y-55799302D01*
X121018856Y-55799302D01*
X121046638Y-56354368D01*
X121205603Y-56738143D01*
X121447787Y-56807608D01*
X122248395Y-56007000D01*
X121447787Y-55206392D01*
X121205603Y-55275857D01*
X121018856Y-55799302D01*
X91898373Y-55799302D01*
X92162737Y-55116045D01*
X92144164Y-54326582D01*
X91877782Y-53683478D01*
X91574593Y-53542012D01*
X90348605Y-54768000D01*
X89989395Y-54768000D01*
X88763407Y-53542012D01*
X88460218Y-53683478D01*
X88175263Y-54419955D01*
X85546000Y-54419955D01*
X85546000Y-53362407D01*
X88943012Y-53362407D01*
X90169000Y-54588395D01*
X91394988Y-53362407D01*
X91253522Y-53059218D01*
X90517045Y-52774263D01*
X89727582Y-52792836D01*
X89084478Y-53059218D01*
X88943012Y-53362407D01*
X85546000Y-53362407D01*
X85546000Y-50667571D01*
X87534000Y-50667571D01*
X87534000Y-51059429D01*
X87683958Y-51421458D01*
X87961042Y-51698542D01*
X88323071Y-51848500D01*
X88714929Y-51848500D01*
X89076958Y-51698542D01*
X89354042Y-51421458D01*
X89504000Y-51059429D01*
X89504000Y-50667571D01*
X89354042Y-50305542D01*
X89076958Y-50028458D01*
X88714929Y-49878500D01*
X88323071Y-49878500D01*
X87961042Y-50028458D01*
X87683958Y-50305542D01*
X87534000Y-50667571D01*
X85546000Y-50667571D01*
X85546000Y-46603571D01*
X87534000Y-46603571D01*
X87534000Y-46995429D01*
X87683958Y-47357458D01*
X87961042Y-47634542D01*
X88323071Y-47784500D01*
X88714929Y-47784500D01*
X89076958Y-47634542D01*
X89354042Y-47357458D01*
X89504000Y-46995429D01*
X89504000Y-46603571D01*
X89354042Y-46241542D01*
X89325126Y-46212626D01*
X90214500Y-46212626D01*
X90214500Y-46624374D01*
X90364501Y-46986509D01*
X90364500Y-50712839D01*
X90347163Y-50800000D01*
X90364500Y-50887161D01*
X90364500Y-50887164D01*
X90415848Y-51145309D01*
X90611451Y-51438049D01*
X90685347Y-51487425D01*
X91451077Y-52253156D01*
X91500451Y-52327049D01*
X91574344Y-52376423D01*
X91574345Y-52376424D01*
X91688949Y-52453000D01*
X91793190Y-52522652D01*
X92051335Y-52574000D01*
X92051339Y-52574000D01*
X92138500Y-52591337D01*
X92225661Y-52574000D01*
X94205641Y-52574000D01*
X94292802Y-52591337D01*
X94379963Y-52574000D01*
X94379967Y-52574000D01*
X94638112Y-52522652D01*
X94930851Y-52327049D01*
X94980227Y-52253154D01*
X95433155Y-51800225D01*
X95507049Y-51750851D01*
X95558650Y-51673626D01*
X95702652Y-51458112D01*
X95710762Y-51417341D01*
X95754000Y-51199967D01*
X95754000Y-51199964D01*
X95771337Y-51112803D01*
X95770622Y-51109206D01*
X96051624Y-50828204D01*
X96264000Y-50315483D01*
X96264000Y-49760517D01*
X96051624Y-49247796D01*
X95659204Y-48855376D01*
X95448260Y-48768000D01*
X95659204Y-48680624D01*
X95855414Y-48484414D01*
X101068473Y-53697473D01*
X101110873Y-53760929D01*
X101362265Y-53928904D01*
X101583950Y-53973000D01*
X101583954Y-53973000D01*
X101658802Y-53987888D01*
X101733650Y-53973000D01*
X106611289Y-53973000D01*
X106728720Y-54090431D01*
X107109126Y-54248000D01*
X107520874Y-54248000D01*
X107901280Y-54090431D01*
X108192431Y-53799280D01*
X108350000Y-53418874D01*
X108350000Y-53007126D01*
X108192431Y-52626720D01*
X108111961Y-52546250D01*
X108192431Y-52465780D01*
X108337066Y-52116598D01*
X119340001Y-52116598D01*
X119340001Y-52528346D01*
X119497570Y-52908752D01*
X119788721Y-53199903D01*
X120169127Y-53357472D01*
X120335200Y-53357472D01*
X121743153Y-54765426D01*
X121696857Y-54784603D01*
X121627392Y-55026787D01*
X122428000Y-55827395D01*
X122442143Y-55813253D01*
X122621748Y-55992858D01*
X122607605Y-56007000D01*
X123408213Y-56807608D01*
X123650397Y-56738143D01*
X123837144Y-56214698D01*
X123813935Y-55751000D01*
X123883289Y-55751000D01*
X124000720Y-55868431D01*
X124381126Y-56026000D01*
X124792874Y-56026000D01*
X125173280Y-55868431D01*
X125242409Y-55799302D01*
X127368856Y-55799302D01*
X127396638Y-56354368D01*
X127555603Y-56738143D01*
X127797787Y-56807608D01*
X128598395Y-56007000D01*
X128957605Y-56007000D01*
X129758213Y-56807608D01*
X130000397Y-56738143D01*
X130187144Y-56214698D01*
X130159362Y-55659632D01*
X130000397Y-55275857D01*
X129758213Y-55206392D01*
X128957605Y-56007000D01*
X128598395Y-56007000D01*
X127797787Y-55206392D01*
X127555603Y-55275857D01*
X127368856Y-55799302D01*
X125242409Y-55799302D01*
X125464431Y-55577280D01*
X125622000Y-55196874D01*
X125622000Y-55026787D01*
X127977392Y-55026787D01*
X128778000Y-55827395D01*
X129578608Y-55026787D01*
X129509143Y-54784603D01*
X128985698Y-54597856D01*
X128430632Y-54625638D01*
X128046857Y-54784603D01*
X127977392Y-55026787D01*
X125622000Y-55026787D01*
X125622000Y-54785126D01*
X125464431Y-54404720D01*
X125173280Y-54113569D01*
X124792874Y-53956000D01*
X124381126Y-53956000D01*
X124000720Y-54113569D01*
X123883289Y-54231000D01*
X123358332Y-54231000D01*
X122041226Y-52913895D01*
X122150119Y-52959000D01*
X122705881Y-52959000D01*
X123219337Y-52746320D01*
X123612320Y-52353337D01*
X123825000Y-51839881D01*
X123825000Y-51284119D01*
X127381000Y-51284119D01*
X127381000Y-51839881D01*
X127593680Y-52353337D01*
X127986663Y-52746320D01*
X128500119Y-52959000D01*
X129055881Y-52959000D01*
X129541104Y-52758015D01*
X129551569Y-52783280D01*
X129669000Y-52900711D01*
X129669000Y-53017289D01*
X129551569Y-53134720D01*
X129394000Y-53515126D01*
X129394000Y-53926874D01*
X129551569Y-54307280D01*
X129842720Y-54598431D01*
X130223126Y-54756000D01*
X130634874Y-54756000D01*
X131015280Y-54598431D01*
X131306431Y-54307280D01*
X131464000Y-53926874D01*
X131464000Y-53515126D01*
X131306431Y-53134720D01*
X131189000Y-53017289D01*
X131189000Y-52900711D01*
X131306431Y-52783280D01*
X131357000Y-52661195D01*
X131357000Y-53127385D01*
X131583078Y-53673185D01*
X132000815Y-54090922D01*
X132027560Y-54102000D01*
X132000815Y-54113078D01*
X131583078Y-54530815D01*
X131357000Y-55076615D01*
X131357000Y-55667385D01*
X131583078Y-56213185D01*
X132000815Y-56630922D01*
X132546615Y-56857000D01*
X133137385Y-56857000D01*
X133683185Y-56630922D01*
X134100922Y-56213185D01*
X134327000Y-55667385D01*
X134327000Y-55076615D01*
X134100922Y-54530815D01*
X133683185Y-54113078D01*
X133656440Y-54102000D01*
X133683185Y-54090922D01*
X134100922Y-53673185D01*
X134327000Y-53127385D01*
X134327000Y-52536615D01*
X134100922Y-51990815D01*
X133683185Y-51573078D01*
X133656440Y-51562000D01*
X133683185Y-51550922D01*
X134100922Y-51133185D01*
X134327000Y-50587385D01*
X134327000Y-49996615D01*
X134100922Y-49450815D01*
X133683185Y-49033078D01*
X133636753Y-49013845D01*
X133706353Y-48795958D01*
X132842000Y-47931605D01*
X131977647Y-48795958D01*
X132047247Y-49013845D01*
X132000815Y-49033078D01*
X131583078Y-49450815D01*
X131357000Y-49996615D01*
X131357000Y-50587385D01*
X131583078Y-51133185D01*
X132000815Y-51550922D01*
X132027560Y-51562000D01*
X132000815Y-51573078D01*
X131583078Y-51990815D01*
X131464000Y-52278294D01*
X131464000Y-51991126D01*
X131306431Y-51610720D01*
X131015280Y-51319569D01*
X130634874Y-51162000D01*
X130223126Y-51162000D01*
X130138872Y-51196899D01*
X129962320Y-50770663D01*
X129569337Y-50377680D01*
X129055881Y-50165000D01*
X128500119Y-50165000D01*
X127986663Y-50377680D01*
X127593680Y-50770663D01*
X127381000Y-51284119D01*
X123825000Y-51284119D01*
X123612320Y-50770663D01*
X123219337Y-50377680D01*
X122705881Y-50165000D01*
X122150119Y-50165000D01*
X121636663Y-50377680D01*
X121243680Y-50770663D01*
X121031000Y-51284119D01*
X121031000Y-51514760D01*
X120961281Y-51445041D01*
X120580875Y-51287472D01*
X120169127Y-51287472D01*
X119788721Y-51445041D01*
X119497570Y-51736192D01*
X119340001Y-52116598D01*
X108337066Y-52116598D01*
X108350000Y-52085374D01*
X108350000Y-51673626D01*
X108192431Y-51293220D01*
X108004215Y-51105004D01*
X108155280Y-51042431D01*
X108446431Y-50751280D01*
X108604000Y-50370874D01*
X108604000Y-50086126D01*
X112884000Y-50086126D01*
X112884000Y-50497874D01*
X113041569Y-50878280D01*
X113332720Y-51169431D01*
X113713126Y-51327000D01*
X114124874Y-51327000D01*
X114505280Y-51169431D01*
X114796431Y-50878280D01*
X114954000Y-50497874D01*
X114954000Y-50086126D01*
X114860272Y-49859845D01*
X115038473Y-49681644D01*
X115101929Y-49639244D01*
X115269904Y-49387852D01*
X115314000Y-49166167D01*
X115314000Y-49166163D01*
X115328888Y-49091315D01*
X115314000Y-49016467D01*
X115314000Y-46796801D01*
X116088675Y-46022126D01*
X117583000Y-46022126D01*
X117583000Y-46433874D01*
X117740569Y-46814280D01*
X117858001Y-46931712D01*
X117858000Y-47937289D01*
X117740569Y-48054720D01*
X117583000Y-48435126D01*
X117583000Y-48846874D01*
X117740569Y-49227280D01*
X118031720Y-49518431D01*
X118412126Y-49676000D01*
X118823874Y-49676000D01*
X119204280Y-49518431D01*
X119495431Y-49227280D01*
X119653000Y-48846874D01*
X119653000Y-48435126D01*
X119495431Y-48054720D01*
X119378000Y-47937289D01*
X119378000Y-46931711D01*
X119495431Y-46814280D01*
X119653000Y-46433874D01*
X119653000Y-46022126D01*
X119495431Y-45641720D01*
X119204280Y-45350569D01*
X118823874Y-45193000D01*
X118412126Y-45193000D01*
X118031720Y-45350569D01*
X117740569Y-45641720D01*
X117583000Y-46022126D01*
X116088675Y-46022126D01*
X117641802Y-44469000D01*
X117807874Y-44469000D01*
X118188280Y-44311431D01*
X118479431Y-44020280D01*
X118637000Y-43639874D01*
X118637000Y-43228126D01*
X118853000Y-43228126D01*
X118853000Y-43639874D01*
X119010569Y-44020280D01*
X119128000Y-44137711D01*
X119128000Y-44502153D01*
X119113112Y-44577000D01*
X119128000Y-44651847D01*
X119128000Y-44651851D01*
X119172096Y-44873536D01*
X119340071Y-45124929D01*
X119403530Y-45167331D01*
X120506002Y-46269804D01*
X120506001Y-47150154D01*
X120491113Y-47225001D01*
X120506001Y-47299848D01*
X120506001Y-47299852D01*
X120550097Y-47521537D01*
X120631000Y-47642617D01*
X120631000Y-47830874D01*
X120788569Y-48211280D01*
X121079720Y-48502431D01*
X121460126Y-48660000D01*
X121871874Y-48660000D01*
X122252280Y-48502431D01*
X122543431Y-48211280D01*
X122701000Y-47830874D01*
X122701000Y-47419126D01*
X122543431Y-47038720D01*
X122252280Y-46747569D01*
X122026001Y-46653841D01*
X122026001Y-46099000D01*
X122232289Y-46099000D01*
X122476720Y-46343431D01*
X122857126Y-46501000D01*
X123268874Y-46501000D01*
X123649280Y-46343431D01*
X123940431Y-46052280D01*
X124098000Y-45671874D01*
X124098000Y-45260126D01*
X123940431Y-44879720D01*
X123649280Y-44588569D01*
X123309916Y-44448000D01*
X127814153Y-44448000D01*
X127889000Y-44462888D01*
X127963847Y-44448000D01*
X128195148Y-44448000D01*
X128270000Y-44462889D01*
X128344852Y-44448000D01*
X128449152Y-44448000D01*
X128523999Y-44462888D01*
X128587499Y-44450257D01*
X128650999Y-44462888D01*
X128725846Y-44448000D01*
X129483198Y-44448000D01*
X128420530Y-45510669D01*
X128357071Y-45553071D01*
X128189096Y-45804464D01*
X128145000Y-46026149D01*
X128145000Y-46026153D01*
X128130112Y-46101000D01*
X128145000Y-46175848D01*
X128145001Y-46675197D01*
X127468198Y-47352000D01*
X127175126Y-47352000D01*
X126794720Y-47509569D01*
X126503569Y-47800720D01*
X126346000Y-48181126D01*
X126346000Y-48592874D01*
X126503569Y-48973280D01*
X126794720Y-49264431D01*
X127175126Y-49422000D01*
X127586874Y-49422000D01*
X127967280Y-49264431D01*
X128258431Y-48973280D01*
X128416000Y-48592874D01*
X128416000Y-48553802D01*
X129389476Y-47580327D01*
X129452929Y-47537929D01*
X129462717Y-47523279D01*
X131345282Y-47523279D01*
X131371685Y-48113458D01*
X131546741Y-48536080D01*
X131798042Y-48616353D01*
X132662395Y-47752000D01*
X133021605Y-47752000D01*
X133885958Y-48616353D01*
X134137259Y-48536080D01*
X134338718Y-47980721D01*
X134312315Y-47390542D01*
X134137259Y-46967920D01*
X133885958Y-46887647D01*
X133021605Y-47752000D01*
X132662395Y-47752000D01*
X131798042Y-46887647D01*
X131546741Y-46967920D01*
X131345282Y-47523279D01*
X129462717Y-47523279D01*
X129495327Y-47474476D01*
X129495329Y-47474474D01*
X129580280Y-47347335D01*
X129620904Y-47286537D01*
X129665000Y-47064852D01*
X129665000Y-47064848D01*
X129679888Y-46990001D01*
X129665000Y-46915154D01*
X129665000Y-46415801D01*
X130760473Y-45320329D01*
X130823929Y-45277929D01*
X130896404Y-45169463D01*
X130991904Y-45026538D01*
X131013769Y-44916615D01*
X131036000Y-44804852D01*
X131036000Y-44804848D01*
X131050888Y-44730000D01*
X131036000Y-44655152D01*
X131036000Y-44002801D01*
X131373136Y-43665665D01*
X131393843Y-43769765D01*
X131534191Y-43979809D01*
X131744235Y-44120157D01*
X131818887Y-44135006D01*
X131583078Y-44370815D01*
X131357000Y-44916615D01*
X131357000Y-45507385D01*
X131583078Y-46053185D01*
X132000815Y-46470922D01*
X132047247Y-46490155D01*
X131977647Y-46708042D01*
X132842000Y-47572395D01*
X133706353Y-46708042D01*
X133636753Y-46490155D01*
X133683185Y-46470922D01*
X134100922Y-46053185D01*
X134327000Y-45507385D01*
X134327000Y-44916615D01*
X134100922Y-44370815D01*
X133865113Y-44135006D01*
X133939765Y-44120157D01*
X134149809Y-43979809D01*
X134290157Y-43769765D01*
X134339440Y-43522000D01*
X134339440Y-41822000D01*
X134290157Y-41574235D01*
X134149809Y-41364191D01*
X133939765Y-41223843D01*
X133692000Y-41174560D01*
X131992000Y-41174560D01*
X131744235Y-41223843D01*
X131534191Y-41364191D01*
X131393843Y-41574235D01*
X131344560Y-41822000D01*
X131344560Y-41907567D01*
X131292000Y-41897112D01*
X131217153Y-41912000D01*
X131217148Y-41912000D01*
X130995463Y-41956096D01*
X130744071Y-42124071D01*
X130701671Y-42187527D01*
X129961199Y-42928000D01*
X129030000Y-42928000D01*
X129030000Y-41470711D01*
X129147431Y-41353280D01*
X129305000Y-40972874D01*
X129305000Y-40561126D01*
X129147431Y-40180720D01*
X128856280Y-39889569D01*
X128475874Y-39732000D01*
X128064126Y-39732000D01*
X127683720Y-39889569D01*
X127392569Y-40180720D01*
X127235000Y-40561126D01*
X127235000Y-40972874D01*
X127392569Y-41353280D01*
X127510001Y-41470712D01*
X127510000Y-42928000D01*
X121994846Y-42928000D01*
X121919999Y-42913112D01*
X121845152Y-42928000D01*
X121845148Y-42928000D01*
X121778949Y-42941168D01*
X122122846Y-42597272D01*
X122349126Y-42691000D01*
X122760874Y-42691000D01*
X123141280Y-42533431D01*
X123432431Y-42242280D01*
X123590000Y-41861874D01*
X123590000Y-41450126D01*
X123432431Y-41069720D01*
X123141280Y-40778569D01*
X122760874Y-40621000D01*
X122349126Y-40621000D01*
X121968720Y-40778569D01*
X121835603Y-40911686D01*
X121692778Y-40940096D01*
X121692776Y-40940097D01*
X121692777Y-40940097D01*
X121504841Y-41065671D01*
X121504839Y-41065673D01*
X121441386Y-41108071D01*
X121398988Y-41171524D01*
X120292530Y-42277984D01*
X120229071Y-42320386D01*
X120158623Y-42425820D01*
X120093874Y-42399000D01*
X119682126Y-42399000D01*
X119301720Y-42556569D01*
X119010569Y-42847720D01*
X118853000Y-43228126D01*
X118637000Y-43228126D01*
X118479431Y-42847720D01*
X118188280Y-42556569D01*
X117807874Y-42399000D01*
X117396126Y-42399000D01*
X117015720Y-42556569D01*
X116724569Y-42847720D01*
X116567000Y-43228126D01*
X116567000Y-43394198D01*
X114069528Y-45891671D01*
X114006072Y-45934071D01*
X113963672Y-45997527D01*
X113963671Y-45997528D01*
X113838097Y-46185463D01*
X113779112Y-46482000D01*
X113794001Y-46556852D01*
X113794000Y-48776513D01*
X113434528Y-49135986D01*
X113371072Y-49178386D01*
X113203096Y-49429778D01*
X113174686Y-49572603D01*
X113041569Y-49705720D01*
X112884000Y-50086126D01*
X108604000Y-50086126D01*
X108604000Y-49959126D01*
X108454000Y-49596993D01*
X108454000Y-48013211D01*
X108573431Y-47893780D01*
X108731000Y-47513374D01*
X108731000Y-47101626D01*
X108573431Y-46721220D01*
X108282280Y-46430069D01*
X107901874Y-46272500D01*
X107490126Y-46272500D01*
X107109720Y-46430069D01*
X106818569Y-46721220D01*
X106661000Y-47101626D01*
X106661000Y-47513374D01*
X106684001Y-47568903D01*
X106684000Y-49596993D01*
X106534000Y-49959126D01*
X106534000Y-50370874D01*
X106691569Y-50751280D01*
X106879785Y-50939496D01*
X106728720Y-51002069D01*
X106611289Y-51119500D01*
X101914803Y-51119500D01*
X96602331Y-45807030D01*
X96559929Y-45743571D01*
X96308537Y-45575596D01*
X96086852Y-45531500D01*
X96086847Y-45531500D01*
X96012000Y-45516612D01*
X95937153Y-45531500D01*
X94150348Y-45531500D01*
X94075500Y-45516612D01*
X94000652Y-45531500D01*
X94000648Y-45531500D01*
X93827105Y-45566020D01*
X93778962Y-45575596D01*
X93654944Y-45658463D01*
X93527571Y-45743571D01*
X93485171Y-45807027D01*
X93176687Y-46115511D01*
X93146483Y-46103000D01*
X92591517Y-46103000D01*
X92284500Y-46230171D01*
X92284500Y-46212626D01*
X92126931Y-45832220D01*
X91835780Y-45541069D01*
X91455374Y-45383500D01*
X91043626Y-45383500D01*
X90663220Y-45541069D01*
X90372069Y-45832220D01*
X90214500Y-46212626D01*
X89325126Y-46212626D01*
X89076958Y-45964458D01*
X88714929Y-45814500D01*
X88323071Y-45814500D01*
X87961042Y-45964458D01*
X87683958Y-46241542D01*
X87534000Y-46603571D01*
X85546000Y-46603571D01*
X85546000Y-44173593D01*
X88943012Y-44173593D01*
X89084478Y-44476782D01*
X89820955Y-44761737D01*
X90610418Y-44743164D01*
X91253522Y-44476782D01*
X91394988Y-44173593D01*
X90169000Y-42947605D01*
X88943012Y-44173593D01*
X85546000Y-44173593D01*
X85546000Y-42419955D01*
X88175263Y-42419955D01*
X88193836Y-43209418D01*
X88460218Y-43852522D01*
X88763407Y-43993988D01*
X89989395Y-42768000D01*
X90348605Y-42768000D01*
X91574593Y-43993988D01*
X91877782Y-43852522D01*
X92162737Y-43116045D01*
X92144164Y-42326582D01*
X91877782Y-41683478D01*
X91574593Y-41542012D01*
X90348605Y-42768000D01*
X89989395Y-42768000D01*
X88763407Y-41542012D01*
X88460218Y-41683478D01*
X88175263Y-42419955D01*
X85546000Y-42419955D01*
X85546000Y-41362407D01*
X88943012Y-41362407D01*
X90169000Y-42588395D01*
X91394988Y-41362407D01*
X91253522Y-41059218D01*
X90517045Y-40774263D01*
X89727582Y-40792836D01*
X89084478Y-41059218D01*
X88943012Y-41362407D01*
X85546000Y-41362407D01*
X85546000Y-40934090D01*
X87162091Y-39318000D01*
X134071910Y-39318000D01*
X135434001Y-40680093D01*
X135434001Y-40680093D01*
G37*
X135434001Y-40680093D02*
X135434000Y-56601909D01*
X133817910Y-58218000D01*
X87162091Y-58218000D01*
X85931304Y-56987213D01*
X121627392Y-56987213D01*
X121696857Y-57229397D01*
X122220302Y-57416144D01*
X122775368Y-57388362D01*
X123159143Y-57229397D01*
X123228608Y-56987213D01*
X127977392Y-56987213D01*
X128046857Y-57229397D01*
X128570302Y-57416144D01*
X129125368Y-57388362D01*
X129509143Y-57229397D01*
X129578608Y-56987213D01*
X128778000Y-56186605D01*
X127977392Y-56987213D01*
X123228608Y-56987213D01*
X122428000Y-56186605D01*
X121627392Y-56987213D01*
X85931304Y-56987213D01*
X85546000Y-56601910D01*
X85546000Y-56173593D01*
X88943012Y-56173593D01*
X89084478Y-56476782D01*
X89820955Y-56761737D01*
X90610418Y-56743164D01*
X91253522Y-56476782D01*
X91394988Y-56173593D01*
X90169000Y-54947605D01*
X88943012Y-56173593D01*
X85546000Y-56173593D01*
X85546000Y-54419955D01*
X88175263Y-54419955D01*
X88193836Y-55209418D01*
X88460218Y-55852522D01*
X88763407Y-55993988D01*
X89989395Y-54768000D01*
X90348605Y-54768000D01*
X91574593Y-55993988D01*
X91877782Y-55852522D01*
X91898373Y-55799302D01*
X121018856Y-55799302D01*
X121046638Y-56354368D01*
X121205603Y-56738143D01*
X121447787Y-56807608D01*
X122248395Y-56007000D01*
X121447787Y-55206392D01*
X121205603Y-55275857D01*
X121018856Y-55799302D01*
X91898373Y-55799302D01*
X92162737Y-55116045D01*
X92144164Y-54326582D01*
X91877782Y-53683478D01*
X91574593Y-53542012D01*
X90348605Y-54768000D01*
X89989395Y-54768000D01*
X88763407Y-53542012D01*
X88460218Y-53683478D01*
X88175263Y-54419955D01*
X85546000Y-54419955D01*
X85546000Y-53362407D01*
X88943012Y-53362407D01*
X90169000Y-54588395D01*
X91394988Y-53362407D01*
X91253522Y-53059218D01*
X90517045Y-52774263D01*
X89727582Y-52792836D01*
X89084478Y-53059218D01*
X88943012Y-53362407D01*
X85546000Y-53362407D01*
X85546000Y-50667571D01*
X87534000Y-50667571D01*
X87534000Y-51059429D01*
X87683958Y-51421458D01*
X87961042Y-51698542D01*
X88323071Y-51848500D01*
X88714929Y-51848500D01*
X89076958Y-51698542D01*
X89354042Y-51421458D01*
X89504000Y-51059429D01*
X89504000Y-50667571D01*
X89354042Y-50305542D01*
X89076958Y-50028458D01*
X88714929Y-49878500D01*
X88323071Y-49878500D01*
X87961042Y-50028458D01*
X87683958Y-50305542D01*
X87534000Y-50667571D01*
X85546000Y-50667571D01*
X85546000Y-46603571D01*
X87534000Y-46603571D01*
X87534000Y-46995429D01*
X87683958Y-47357458D01*
X87961042Y-47634542D01*
X88323071Y-47784500D01*
X88714929Y-47784500D01*
X89076958Y-47634542D01*
X89354042Y-47357458D01*
X89504000Y-46995429D01*
X89504000Y-46603571D01*
X89354042Y-46241542D01*
X89325126Y-46212626D01*
X90214500Y-46212626D01*
X90214500Y-46624374D01*
X90364501Y-46986509D01*
X90364500Y-50712839D01*
X90347163Y-50800000D01*
X90364500Y-50887161D01*
X90364500Y-50887164D01*
X90415848Y-51145309D01*
X90611451Y-51438049D01*
X90685347Y-51487425D01*
X91451077Y-52253156D01*
X91500451Y-52327049D01*
X91574344Y-52376423D01*
X91574345Y-52376424D01*
X91688949Y-52453000D01*
X91793190Y-52522652D01*
X92051335Y-52574000D01*
X92051339Y-52574000D01*
X92138500Y-52591337D01*
X92225661Y-52574000D01*
X94205641Y-52574000D01*
X94292802Y-52591337D01*
X94379963Y-52574000D01*
X94379967Y-52574000D01*
X94638112Y-52522652D01*
X94930851Y-52327049D01*
X94980227Y-52253154D01*
X95433155Y-51800225D01*
X95507049Y-51750851D01*
X95558650Y-51673626D01*
X95702652Y-51458112D01*
X95710762Y-51417341D01*
X95754000Y-51199967D01*
X95754000Y-51199964D01*
X95771337Y-51112803D01*
X95770622Y-51109206D01*
X96051624Y-50828204D01*
X96264000Y-50315483D01*
X96264000Y-49760517D01*
X96051624Y-49247796D01*
X95659204Y-48855376D01*
X95448260Y-48768000D01*
X95659204Y-48680624D01*
X95855414Y-48484414D01*
X101068473Y-53697473D01*
X101110873Y-53760929D01*
X101362265Y-53928904D01*
X101583950Y-53973000D01*
X101583954Y-53973000D01*
X101658802Y-53987888D01*
X101733650Y-53973000D01*
X106611289Y-53973000D01*
X106728720Y-54090431D01*
X107109126Y-54248000D01*
X107520874Y-54248000D01*
X107901280Y-54090431D01*
X108192431Y-53799280D01*
X108350000Y-53418874D01*
X108350000Y-53007126D01*
X108192431Y-52626720D01*
X108111961Y-52546250D01*
X108192431Y-52465780D01*
X108337066Y-52116598D01*
X119340001Y-52116598D01*
X119340001Y-52528346D01*
X119497570Y-52908752D01*
X119788721Y-53199903D01*
X120169127Y-53357472D01*
X120335200Y-53357472D01*
X121743153Y-54765426D01*
X121696857Y-54784603D01*
X121627392Y-55026787D01*
X122428000Y-55827395D01*
X122442143Y-55813253D01*
X122621748Y-55992858D01*
X122607605Y-56007000D01*
X123408213Y-56807608D01*
X123650397Y-56738143D01*
X123837144Y-56214698D01*
X123813935Y-55751000D01*
X123883289Y-55751000D01*
X124000720Y-55868431D01*
X124381126Y-56026000D01*
X124792874Y-56026000D01*
X125173280Y-55868431D01*
X125242409Y-55799302D01*
X127368856Y-55799302D01*
X127396638Y-56354368D01*
X127555603Y-56738143D01*
X127797787Y-56807608D01*
X128598395Y-56007000D01*
X128957605Y-56007000D01*
X129758213Y-56807608D01*
X130000397Y-56738143D01*
X130187144Y-56214698D01*
X130159362Y-55659632D01*
X130000397Y-55275857D01*
X129758213Y-55206392D01*
X128957605Y-56007000D01*
X128598395Y-56007000D01*
X127797787Y-55206392D01*
X127555603Y-55275857D01*
X127368856Y-55799302D01*
X125242409Y-55799302D01*
X125464431Y-55577280D01*
X125622000Y-55196874D01*
X125622000Y-55026787D01*
X127977392Y-55026787D01*
X128778000Y-55827395D01*
X129578608Y-55026787D01*
X129509143Y-54784603D01*
X128985698Y-54597856D01*
X128430632Y-54625638D01*
X128046857Y-54784603D01*
X127977392Y-55026787D01*
X125622000Y-55026787D01*
X125622000Y-54785126D01*
X125464431Y-54404720D01*
X125173280Y-54113569D01*
X124792874Y-53956000D01*
X124381126Y-53956000D01*
X124000720Y-54113569D01*
X123883289Y-54231000D01*
X123358332Y-54231000D01*
X122041226Y-52913895D01*
X122150119Y-52959000D01*
X122705881Y-52959000D01*
X123219337Y-52746320D01*
X123612320Y-52353337D01*
X123825000Y-51839881D01*
X123825000Y-51284119D01*
X127381000Y-51284119D01*
X127381000Y-51839881D01*
X127593680Y-52353337D01*
X127986663Y-52746320D01*
X128500119Y-52959000D01*
X129055881Y-52959000D01*
X129541104Y-52758015D01*
X129551569Y-52783280D01*
X129669000Y-52900711D01*
X129669000Y-53017289D01*
X129551569Y-53134720D01*
X129394000Y-53515126D01*
X129394000Y-53926874D01*
X129551569Y-54307280D01*
X129842720Y-54598431D01*
X130223126Y-54756000D01*
X130634874Y-54756000D01*
X131015280Y-54598431D01*
X131306431Y-54307280D01*
X131464000Y-53926874D01*
X131464000Y-53515126D01*
X131306431Y-53134720D01*
X131189000Y-53017289D01*
X131189000Y-52900711D01*
X131306431Y-52783280D01*
X131357000Y-52661195D01*
X131357000Y-53127385D01*
X131583078Y-53673185D01*
X132000815Y-54090922D01*
X132027560Y-54102000D01*
X132000815Y-54113078D01*
X131583078Y-54530815D01*
X131357000Y-55076615D01*
X131357000Y-55667385D01*
X131583078Y-56213185D01*
X132000815Y-56630922D01*
X132546615Y-56857000D01*
X133137385Y-56857000D01*
X133683185Y-56630922D01*
X134100922Y-56213185D01*
X134327000Y-55667385D01*
X134327000Y-55076615D01*
X134100922Y-54530815D01*
X133683185Y-54113078D01*
X133656440Y-54102000D01*
X133683185Y-54090922D01*
X134100922Y-53673185D01*
X134327000Y-53127385D01*
X134327000Y-52536615D01*
X134100922Y-51990815D01*
X133683185Y-51573078D01*
X133656440Y-51562000D01*
X133683185Y-51550922D01*
X134100922Y-51133185D01*
X134327000Y-50587385D01*
X134327000Y-49996615D01*
X134100922Y-49450815D01*
X133683185Y-49033078D01*
X133636753Y-49013845D01*
X133706353Y-48795958D01*
X132842000Y-47931605D01*
X131977647Y-48795958D01*
X132047247Y-49013845D01*
X132000815Y-49033078D01*
X131583078Y-49450815D01*
X131357000Y-49996615D01*
X131357000Y-50587385D01*
X131583078Y-51133185D01*
X132000815Y-51550922D01*
X132027560Y-51562000D01*
X132000815Y-51573078D01*
X131583078Y-51990815D01*
X131464000Y-52278294D01*
X131464000Y-51991126D01*
X131306431Y-51610720D01*
X131015280Y-51319569D01*
X130634874Y-51162000D01*
X130223126Y-51162000D01*
X130138872Y-51196899D01*
X129962320Y-50770663D01*
X129569337Y-50377680D01*
X129055881Y-50165000D01*
X128500119Y-50165000D01*
X127986663Y-50377680D01*
X127593680Y-50770663D01*
X127381000Y-51284119D01*
X123825000Y-51284119D01*
X123612320Y-50770663D01*
X123219337Y-50377680D01*
X122705881Y-50165000D01*
X122150119Y-50165000D01*
X121636663Y-50377680D01*
X121243680Y-50770663D01*
X121031000Y-51284119D01*
X121031000Y-51514760D01*
X120961281Y-51445041D01*
X120580875Y-51287472D01*
X120169127Y-51287472D01*
X119788721Y-51445041D01*
X119497570Y-51736192D01*
X119340001Y-52116598D01*
X108337066Y-52116598D01*
X108350000Y-52085374D01*
X108350000Y-51673626D01*
X108192431Y-51293220D01*
X108004215Y-51105004D01*
X108155280Y-51042431D01*
X108446431Y-50751280D01*
X108604000Y-50370874D01*
X108604000Y-50086126D01*
X112884000Y-50086126D01*
X112884000Y-50497874D01*
X113041569Y-50878280D01*
X113332720Y-51169431D01*
X113713126Y-51327000D01*
X114124874Y-51327000D01*
X114505280Y-51169431D01*
X114796431Y-50878280D01*
X114954000Y-50497874D01*
X114954000Y-50086126D01*
X114860272Y-49859845D01*
X115038473Y-49681644D01*
X115101929Y-49639244D01*
X115269904Y-49387852D01*
X115314000Y-49166167D01*
X115314000Y-49166163D01*
X115328888Y-49091315D01*
X115314000Y-49016467D01*
X115314000Y-46796801D01*
X116088675Y-46022126D01*
X117583000Y-46022126D01*
X117583000Y-46433874D01*
X117740569Y-46814280D01*
X117858001Y-46931712D01*
X117858000Y-47937289D01*
X117740569Y-48054720D01*
X117583000Y-48435126D01*
X117583000Y-48846874D01*
X117740569Y-49227280D01*
X118031720Y-49518431D01*
X118412126Y-49676000D01*
X118823874Y-49676000D01*
X119204280Y-49518431D01*
X119495431Y-49227280D01*
X119653000Y-48846874D01*
X119653000Y-48435126D01*
X119495431Y-48054720D01*
X119378000Y-47937289D01*
X119378000Y-46931711D01*
X119495431Y-46814280D01*
X119653000Y-46433874D01*
X119653000Y-46022126D01*
X119495431Y-45641720D01*
X119204280Y-45350569D01*
X118823874Y-45193000D01*
X118412126Y-45193000D01*
X118031720Y-45350569D01*
X117740569Y-45641720D01*
X117583000Y-46022126D01*
X116088675Y-46022126D01*
X117641802Y-44469000D01*
X117807874Y-44469000D01*
X118188280Y-44311431D01*
X118479431Y-44020280D01*
X118637000Y-43639874D01*
X118637000Y-43228126D01*
X118853000Y-43228126D01*
X118853000Y-43639874D01*
X119010569Y-44020280D01*
X119128000Y-44137711D01*
X119128000Y-44502153D01*
X119113112Y-44577000D01*
X119128000Y-44651847D01*
X119128000Y-44651851D01*
X119172096Y-44873536D01*
X119340071Y-45124929D01*
X119403530Y-45167331D01*
X120506002Y-46269804D01*
X120506001Y-47150154D01*
X120491113Y-47225001D01*
X120506001Y-47299848D01*
X120506001Y-47299852D01*
X120550097Y-47521537D01*
X120631000Y-47642617D01*
X120631000Y-47830874D01*
X120788569Y-48211280D01*
X121079720Y-48502431D01*
X121460126Y-48660000D01*
X121871874Y-48660000D01*
X122252280Y-48502431D01*
X122543431Y-48211280D01*
X122701000Y-47830874D01*
X122701000Y-47419126D01*
X122543431Y-47038720D01*
X122252280Y-46747569D01*
X122026001Y-46653841D01*
X122026001Y-46099000D01*
X122232289Y-46099000D01*
X122476720Y-46343431D01*
X122857126Y-46501000D01*
X123268874Y-46501000D01*
X123649280Y-46343431D01*
X123940431Y-46052280D01*
X124098000Y-45671874D01*
X124098000Y-45260126D01*
X123940431Y-44879720D01*
X123649280Y-44588569D01*
X123309916Y-44448000D01*
X127814153Y-44448000D01*
X127889000Y-44462888D01*
X127963847Y-44448000D01*
X128195148Y-44448000D01*
X128270000Y-44462889D01*
X128344852Y-44448000D01*
X128449152Y-44448000D01*
X128523999Y-44462888D01*
X128587499Y-44450257D01*
X128650999Y-44462888D01*
X128725846Y-44448000D01*
X129483198Y-44448000D01*
X128420530Y-45510669D01*
X128357071Y-45553071D01*
X128189096Y-45804464D01*
X128145000Y-46026149D01*
X128145000Y-46026153D01*
X128130112Y-46101000D01*
X128145000Y-46175848D01*
X128145001Y-46675197D01*
X127468198Y-47352000D01*
X127175126Y-47352000D01*
X126794720Y-47509569D01*
X126503569Y-47800720D01*
X126346000Y-48181126D01*
X126346000Y-48592874D01*
X126503569Y-48973280D01*
X126794720Y-49264431D01*
X127175126Y-49422000D01*
X127586874Y-49422000D01*
X127967280Y-49264431D01*
X128258431Y-48973280D01*
X128416000Y-48592874D01*
X128416000Y-48553802D01*
X129389476Y-47580327D01*
X129452929Y-47537929D01*
X129462717Y-47523279D01*
X131345282Y-47523279D01*
X131371685Y-48113458D01*
X131546741Y-48536080D01*
X131798042Y-48616353D01*
X132662395Y-47752000D01*
X133021605Y-47752000D01*
X133885958Y-48616353D01*
X134137259Y-48536080D01*
X134338718Y-47980721D01*
X134312315Y-47390542D01*
X134137259Y-46967920D01*
X133885958Y-46887647D01*
X133021605Y-47752000D01*
X132662395Y-47752000D01*
X131798042Y-46887647D01*
X131546741Y-46967920D01*
X131345282Y-47523279D01*
X129462717Y-47523279D01*
X129495327Y-47474476D01*
X129495329Y-47474474D01*
X129580280Y-47347335D01*
X129620904Y-47286537D01*
X129665000Y-47064852D01*
X129665000Y-47064848D01*
X129679888Y-46990001D01*
X129665000Y-46915154D01*
X129665000Y-46415801D01*
X130760473Y-45320329D01*
X130823929Y-45277929D01*
X130896404Y-45169463D01*
X130991904Y-45026538D01*
X131013769Y-44916615D01*
X131036000Y-44804852D01*
X131036000Y-44804848D01*
X131050888Y-44730000D01*
X131036000Y-44655152D01*
X131036000Y-44002801D01*
X131373136Y-43665665D01*
X131393843Y-43769765D01*
X131534191Y-43979809D01*
X131744235Y-44120157D01*
X131818887Y-44135006D01*
X131583078Y-44370815D01*
X131357000Y-44916615D01*
X131357000Y-45507385D01*
X131583078Y-46053185D01*
X132000815Y-46470922D01*
X132047247Y-46490155D01*
X131977647Y-46708042D01*
X132842000Y-47572395D01*
X133706353Y-46708042D01*
X133636753Y-46490155D01*
X133683185Y-46470922D01*
X134100922Y-46053185D01*
X134327000Y-45507385D01*
X134327000Y-44916615D01*
X134100922Y-44370815D01*
X133865113Y-44135006D01*
X133939765Y-44120157D01*
X134149809Y-43979809D01*
X134290157Y-43769765D01*
X134339440Y-43522000D01*
X134339440Y-41822000D01*
X134290157Y-41574235D01*
X134149809Y-41364191D01*
X133939765Y-41223843D01*
X133692000Y-41174560D01*
X131992000Y-41174560D01*
X131744235Y-41223843D01*
X131534191Y-41364191D01*
X131393843Y-41574235D01*
X131344560Y-41822000D01*
X131344560Y-41907567D01*
X131292000Y-41897112D01*
X131217153Y-41912000D01*
X131217148Y-41912000D01*
X130995463Y-41956096D01*
X130744071Y-42124071D01*
X130701671Y-42187527D01*
X129961199Y-42928000D01*
X129030000Y-42928000D01*
X129030000Y-41470711D01*
X129147431Y-41353280D01*
X129305000Y-40972874D01*
X129305000Y-40561126D01*
X129147431Y-40180720D01*
X128856280Y-39889569D01*
X128475874Y-39732000D01*
X128064126Y-39732000D01*
X127683720Y-39889569D01*
X127392569Y-40180720D01*
X127235000Y-40561126D01*
X127235000Y-40972874D01*
X127392569Y-41353280D01*
X127510001Y-41470712D01*
X127510000Y-42928000D01*
X121994846Y-42928000D01*
X121919999Y-42913112D01*
X121845152Y-42928000D01*
X121845148Y-42928000D01*
X121778949Y-42941168D01*
X122122846Y-42597272D01*
X122349126Y-42691000D01*
X122760874Y-42691000D01*
X123141280Y-42533431D01*
X123432431Y-42242280D01*
X123590000Y-41861874D01*
X123590000Y-41450126D01*
X123432431Y-41069720D01*
X123141280Y-40778569D01*
X122760874Y-40621000D01*
X122349126Y-40621000D01*
X121968720Y-40778569D01*
X121835603Y-40911686D01*
X121692778Y-40940096D01*
X121692776Y-40940097D01*
X121692777Y-40940097D01*
X121504841Y-41065671D01*
X121504839Y-41065673D01*
X121441386Y-41108071D01*
X121398988Y-41171524D01*
X120292530Y-42277984D01*
X120229071Y-42320386D01*
X120158623Y-42425820D01*
X120093874Y-42399000D01*
X119682126Y-42399000D01*
X119301720Y-42556569D01*
X119010569Y-42847720D01*
X118853000Y-43228126D01*
X118637000Y-43228126D01*
X118479431Y-42847720D01*
X118188280Y-42556569D01*
X117807874Y-42399000D01*
X117396126Y-42399000D01*
X117015720Y-42556569D01*
X116724569Y-42847720D01*
X116567000Y-43228126D01*
X116567000Y-43394198D01*
X114069528Y-45891671D01*
X114006072Y-45934071D01*
X113963672Y-45997527D01*
X113963671Y-45997528D01*
X113838097Y-46185463D01*
X113779112Y-46482000D01*
X113794001Y-46556852D01*
X113794000Y-48776513D01*
X113434528Y-49135986D01*
X113371072Y-49178386D01*
X113203096Y-49429778D01*
X113174686Y-49572603D01*
X113041569Y-49705720D01*
X112884000Y-50086126D01*
X108604000Y-50086126D01*
X108604000Y-49959126D01*
X108454000Y-49596993D01*
X108454000Y-48013211D01*
X108573431Y-47893780D01*
X108731000Y-47513374D01*
X108731000Y-47101626D01*
X108573431Y-46721220D01*
X108282280Y-46430069D01*
X107901874Y-46272500D01*
X107490126Y-46272500D01*
X107109720Y-46430069D01*
X106818569Y-46721220D01*
X106661000Y-47101626D01*
X106661000Y-47513374D01*
X106684001Y-47568903D01*
X106684000Y-49596993D01*
X106534000Y-49959126D01*
X106534000Y-50370874D01*
X106691569Y-50751280D01*
X106879785Y-50939496D01*
X106728720Y-51002069D01*
X106611289Y-51119500D01*
X101914803Y-51119500D01*
X96602331Y-45807030D01*
X96559929Y-45743571D01*
X96308537Y-45575596D01*
X96086852Y-45531500D01*
X96086847Y-45531500D01*
X96012000Y-45516612D01*
X95937153Y-45531500D01*
X94150348Y-45531500D01*
X94075500Y-45516612D01*
X94000652Y-45531500D01*
X94000648Y-45531500D01*
X93827105Y-45566020D01*
X93778962Y-45575596D01*
X93654944Y-45658463D01*
X93527571Y-45743571D01*
X93485171Y-45807027D01*
X93176687Y-46115511D01*
X93146483Y-46103000D01*
X92591517Y-46103000D01*
X92284500Y-46230171D01*
X92284500Y-46212626D01*
X92126931Y-45832220D01*
X91835780Y-45541069D01*
X91455374Y-45383500D01*
X91043626Y-45383500D01*
X90663220Y-45541069D01*
X90372069Y-45832220D01*
X90214500Y-46212626D01*
X89325126Y-46212626D01*
X89076958Y-45964458D01*
X88714929Y-45814500D01*
X88323071Y-45814500D01*
X87961042Y-45964458D01*
X87683958Y-46241542D01*
X87534000Y-46603571D01*
X85546000Y-46603571D01*
X85546000Y-44173593D01*
X88943012Y-44173593D01*
X89084478Y-44476782D01*
X89820955Y-44761737D01*
X90610418Y-44743164D01*
X91253522Y-44476782D01*
X91394988Y-44173593D01*
X90169000Y-42947605D01*
X88943012Y-44173593D01*
X85546000Y-44173593D01*
X85546000Y-42419955D01*
X88175263Y-42419955D01*
X88193836Y-43209418D01*
X88460218Y-43852522D01*
X88763407Y-43993988D01*
X89989395Y-42768000D01*
X90348605Y-42768000D01*
X91574593Y-43993988D01*
X91877782Y-43852522D01*
X92162737Y-43116045D01*
X92144164Y-42326582D01*
X91877782Y-41683478D01*
X91574593Y-41542012D01*
X90348605Y-42768000D01*
X89989395Y-42768000D01*
X88763407Y-41542012D01*
X88460218Y-41683478D01*
X88175263Y-42419955D01*
X85546000Y-42419955D01*
X85546000Y-41362407D01*
X88943012Y-41362407D01*
X90169000Y-42588395D01*
X91394988Y-41362407D01*
X91253522Y-41059218D01*
X90517045Y-40774263D01*
X89727582Y-40792836D01*
X89084478Y-41059218D01*
X88943012Y-41362407D01*
X85546000Y-41362407D01*
X85546000Y-40934090D01*
X87162091Y-39318000D01*
X134071910Y-39318000D01*
X135434001Y-40680093D01*
G36*
X94078796Y-48680624D02*
X94289740Y-48768000D01*
X94078796Y-48855376D01*
X93686376Y-49247796D01*
X93578590Y-49508015D01*
X93048605Y-50038000D01*
X93062748Y-50052143D01*
X92883143Y-50231748D01*
X92869000Y-50217605D01*
X92854858Y-50231748D01*
X92675253Y-50052143D01*
X92689395Y-50038000D01*
X92675253Y-50023858D01*
X92854858Y-49844253D01*
X92869000Y-49858395D01*
X93668159Y-49059236D01*
X93598941Y-48817258D01*
X93454069Y-48765594D01*
X93659204Y-48680624D01*
X93869000Y-48470828D01*
X94078796Y-48680624D01*
X94078796Y-48680624D01*
G37*
X94078796Y-48680624D02*
X94289740Y-48768000D01*
X94078796Y-48855376D01*
X93686376Y-49247796D01*
X93578590Y-49508015D01*
X93048605Y-50038000D01*
X93062748Y-50052143D01*
X92883143Y-50231748D01*
X92869000Y-50217605D01*
X92854858Y-50231748D01*
X92675253Y-50052143D01*
X92689395Y-50038000D01*
X92675253Y-50023858D01*
X92854858Y-49844253D01*
X92869000Y-49858395D01*
X93668159Y-49059236D01*
X93598941Y-48817258D01*
X93454069Y-48765594D01*
X93659204Y-48680624D01*
X93869000Y-48470828D01*
X94078796Y-48680624D01*
G04 #@! TD*
M02*
