M48
;DRILL file {KiCad 5.0.0-fee4fd1~65~ubuntu17.10.1} date Sun Dec 23 17:35:22 2018
;FORMAT={-:-/ absolute / inch / decimal}
FMAT,2
INCH,TZ
T1C0.0157
T2C0.0276
T3C0.0300
T4C0.0315
T5C0.0319
T6C0.0906
%
G90
G05
M72
T1
X3.4Y-1.7075
X3.4Y-2.14
X3.45Y-1.6
X3.5Y-2.25
X3.535Y-2.005
X3.5925Y-1.8275
X3.65Y-2.1
X3.65Y-2.2
X3.65Y-2.25
X3.75Y-2.1
X3.75Y-2.2
X3.8Y-1.75
X3.8Y-2.25
X3.805Y-2.005
X3.85Y-1.75
X3.9706Y-1.5769
X4.Y-1.8
X4.05Y-1.9
X4.105Y-2.0025
X4.12Y-1.845
X4.225Y-2.0425
X4.225Y-2.095
X4.235Y-1.975
X4.24Y-1.8625
X4.3Y-2.25
X4.35Y-1.9
X4.35Y-2.15
X4.44Y-1.675
X4.45Y-1.75
X4.485Y-1.98
X4.63Y-1.71
X4.65Y-2.25
X4.67Y-1.82
X4.67Y-1.915
X4.72Y-1.71
X4.72Y-2.25
X4.7392Y-2.0599
X4.785Y-1.735
X4.79Y-1.875
X4.825Y-1.64
X4.845Y-1.79
X4.905Y-2.165
X4.95Y-2.25
X4.985Y-1.82
X5.015Y-1.905
X5.05Y-1.605
X5.065Y-1.77
X5.1Y-1.95
X5.135Y-2.055
X5.135Y-2.115
X5.15Y-1.9
X5.2Y-1.6
T2
X3.485Y-1.8425
X3.485Y-2.0025
T3
X4.82Y-2.03
X4.82Y-2.205
X5.07Y-2.03
X5.07Y-2.205
T4
X5.23Y-1.68
X5.23Y-1.78
X5.23Y-1.88
X5.23Y-1.98
X5.23Y-2.08
X5.23Y-2.18
T5
X3.6563Y-1.87
X3.6563Y-1.97
X3.735Y-1.87
X3.735Y-1.97
T6
X3.55Y-1.6838
X3.55Y-2.1562
T0
M30
